<?xml version="1.0" encoding="utf-8"?>
<!-- Generator: Adobe Illustrator 21.1.0, SVG Export Plug-In . SVG Version: 6.00 Build 0)  -->
<svg version="1.1" id="Capa_1" xmlns="http://www.w3.org/2000/svg" xmlns:xlink="http://www.w3.org/1999/xlink" x="0px" y="0px"
	 viewBox="0 0 1920 945.8" style="enable-background:new 0 0 1920 945.8;" xml:space="preserve">
<style type="text/css">
	.st0{fill:#141333;}
	.st1{opacity:5.000000e-02;}
	.st2{clip-path:url(#SVGID_2_);fill:#F2F2F2;}
</style>
<g>
	<g>
		<rect x="0" y="0" class="st0" width="1920" height="945.8"/>
		<g class="st1">
			<defs>
				<rect id="SVGID_1_" x="0" y="0" class="st1" width="1920" height="945.8"/>
			</defs>
			<clipPath id="SVGID_2_">
				<use xlink:href="#SVGID_1_"  style="overflow:visible;"/>
			</clipPath>
			<path class="st2" d="M1121.3,918.3v3.9c-1.1-0.5-3.3-1.3-3.7-1.3c0,18.8-5,31.8-9.7,46.6c-3.9,11.7-5.8,29-19,29
				c-5.4,0-10.2-7.5-10.2-14.2c0-3.4,0.6-4.7,0.4-6.5c-2.6-2.3-2.6-6.5-2.6-10.4c0-1,3.9-5.2,4.3-5.2c0,0,4.3-11.1,4.3-11.6
				c0-2.8-3.3-9.3-3.3-13.5c0-12.7,7.8-11.9,14-16.3c5-3.4,11.7-13.2,15.1-17.3c1.1-1.3,0.4-5.7,1.3-7.7
				C1119.8,894.7,1119.1,911.5,1121.3,918.3z M1301.4,750.6c0,3.6,2.4,7.2,5.4,7.2c4.1,0,6.9-5.9,6.9-10.6c0-8.3-6.3-11.4-9.3-17.6
				C1304.4,737.4,1301.4,743.1,1301.4,750.6z M1461.6,840.6c0-2.6-1.1-6.2,1.1-7.2v-11.2c0-2.6-3-3.4-4.3-4.9c-2.4-2.9-5-4.4-5-9.8
				c-2.4,0-4.1-0.8-4.1-4.1l0.9-2.6c-0.4-1-1.1-2.3-1.9-2.3h-1.7c0-0.3,0.4-1,0.4-1.3c0-3.9-3.7-5.2-6.9-6.5
				c-6.1-2.4-8.4-5.7-12.5-10.6c-2.1-2.6-3.7-5.7-6.9-7c-0.9-0.3-2,0-2.4-1.3c-1.7-4.1-3.3-8-8-9.8h-7.1c-1.8-1.1-2.2-2.3-4.3-2.3
				h-1.3v2.1c0.6,2.6,4.1,9.8,5.8,10.4c1.9,0.5,4.1,0,4.9,2.3c1.3,3.1,2,4.7,3.2,7.8c1.5,3.6,6.5,2.6,8,8.5c0.4,2.1,1.9,8.3,3,9.1
				c0.6,0.5,3.2,0.8,3.4,1.3c0.4,0.8,0,2.3,0.7,2.3c0.6,0,3.2,5.2,3.7,6.5c2.4,6,4.1,10.6,8.4,15.8c3.9,4.7,7.8,6.7,11.9,11.6
				c0.2,0.2,4.1,7,5.2,7C1457.3,844.3,1461.6,843.5,1461.6,840.6z M1481.7,795.1c0,1.3,2.2,10.6,3.2,10.9c1.1,0.3,2.4,0.3,2.8,1.6
				c0,0.3-0.2,1-0.2,1.3c2.8,5.2-0.7,14.2,7.3,14.2c1.7,0,2.8-1.6,4.5-1.3c0.2,1,0,3.9,0.4,3.9c0.6,0,1.1,1.3,1.7,1.3
				c2.6,0,3.7-2.8,5.4-2.8c3.7,0,6.1,3.1,9.5,4.2c0,1.6,0.6,3.6,2.8,3.6c2.8,0,3.3-3.1,6.7-4.1c0-2.9,2.6-6.7,2.6-8.8
				c0-1.3-1.1-1.8-1.1-3.6c0-1.6,2.1-5.5,4.7-6c0-4.4,1.7-5.9,2.8-11.6l1.1-2.6c0.7-0.3,1.5-0.5,2.2-0.5c2.4,0,4.1,1.3,4.7-2.6
				c-3.9,0-9.7-12.9-9.7-16.8c0-0.8,0.8-1.6,1.5-1.8c-0.2-0.8-0.7-1.6-0.9-2.3c0,0,5.8-2.8,6.3-3.6c-0.4,0-0.9-0.8-0.9-1.3
				c0-2.3,4.8-0.8,4.8-3.1c0-5.2-9.1-2.1-9.1-7.5c0-3.9,0.4-6.5-3.3-6.5c-3.4,0-8.2,9.8-9.9,14c-0.8,2.1-5.8,0.8-7.8,3.1
				c-0.4,0.5-0.7,1.8-1.3,2.1c-1,0.5-0.8,1-2.1,1.8c0,0-2.3,2.1-1.5,3.1c-1.7,2.1-1.7,4.7-5,5.4c-2.4,0.5-4.6,0.5-6.1,2.3
				c-3,3.7-2.2,11.7-8.8,11.7C1486.3,792.5,1481.7,790.7,1481.7,795.1z M1557.7,798.2c3.7,0,5.2-1,8.2-1c2.8,0,4.7,1.8,7.6,1.8
				c4.3,0,5.8-4.4,6.5-8.3c0.7,0,0.9-1.3,1.1-2.1h-1.3c-2.6,2.1-5.6,4.4-6.9,6h-1.7l-15.1-3.1c-5.6,0-8.2,8.6-8.2,14.8
				c0,1.6-1.7,2.8-2,3.9c-1.5,5.9-3.9,8.3-3.9,14c0,3.1,3,3.1,4.3,3.4v12.4c0,1.6,1.7,3.4,3.4,3.4c2.4,0,3.3-9.1,3.3-10.3
				c0-3.4-1.9-5.2-1.9-8.5c0-1.8,1.7-3.1,3.2-3.1c0.6,0,1.1,0.3,1.7,0l-0.9,5.4c0,3.3,3.5,4.6,3.5,8c0,0.8,0.2,1.6,0,2.3h2.8
				c0-2.9,4.8-2.6,4.8-5.4c-0.9-0.3-3-3.1-3-4.7c0-0.5,0.7-1,0.8-1.5c-1.3-0.8-5.4-10.1-5.4-10.9c6,0,6.5-5.7,11.4-7.5v-2.1
				c-1.3-0.3-12.7,3.9-13,4.6l0.5-1c-0.9,1.3-1.1,2.6-2.4,2.6c-3.2,0-4.5-4.9-4.5-8.8C1550.6,797.2,1554.1,798.2,1557.7,798.2z
				 M1516.3,863.6c2.6,0,2.4,1.8,4.5,1.8c0.4,0,2-1.8,2.4-2.8c-1.5-0.8-1.5-1.6-3.4-2.4c-1.9-0.8-3.7,1.3-5.2-0.5
				c-0.4-0.5-0.4-2.3-1.8-2.3c-3.9,0-6.7-0.6-9-3.4c0.4,0.2,7.8-0.5,8-1.8h-1.7l-6.5,1c-3.9,0-5.4-4.7-9.7-4.7
				c-2.6,0-3.2,3.9-6.5,3.9c-7.1,0-9.9-8.3-16.4-8.3c-1.3,0-2.2,1.6-3.5,1.6c-0.6,0-1.1-1.1-1.7-1.1c-1.3,0-5.2,4.7-5.4,5.4
				c3.2,0,5,3.1,7.1,5.7c2.1,2.6,5.4,0,8.6,1.3c4.3,1.5,7.8,1.8,11.9,1.8c2.1,0,2.8,3.4,5.4,3.4c8.4,0,15.8,0.5,22.9,3.9
				C1516.1,865.5,1515.6,863.6,1516.3,863.6z M1561.7,867c2.8-1,4.7-1.8,6.2-5.2c-1.9,1-3,2.6-6.2,2.6c-3.3,0-4.8-1.8-8.6-1.8
				c-1.5,0-3.9-0.3-3.9,1.8c0,2.8,3.2,2.6,4.8,2.6H1561.7z M1538.3,862.9c0,0.8-0.2,1.3-0.2,2.1c-1.1-0.5-2.2-1-4.1-1
				c-2,0-3.7-0.3-3.7,2.6c0,1,2.6,1.8,4.3,1.8c2.2,0,3-1.6,5.2-2.6l1.7,1h1.9c-0.4-0.5,0-1.8,0-3.9H1538.3z M1550.6,870.1h-2.2
				c-1.5,0-4.1-0.5-4.1,1.6c0,2.6,3.5,2.8,5.6,2.8c0,0.8,0.2,3.4,1.3,3.4h0.9c0.7,0,1.7-1,1.7-1.8
				C1553.9,873,1550.6,873.7,1550.6,870.1z M1527.3,862.6h-2v2.6c0,0.8,1.1,1.8,1.7,1.8c1.1,0,1.9-1,2.2-2.6
				C1528.4,863.9,1528.4,862.6,1527.3,862.6z M1580.7,870.7c3.4,0,10.6-2.1,12.7-6c-1.9-1.5-11.5-0.5-13.6,2.1
				c-0.4,0.5-0.4,2-1.1,2.3c-3.2,1.3-7.3,1.3-7.3,7c0,1.1,0.7,2.3,1.5,2.3c2.4,0,6.1-3.1,7.1-4.4
				C1580.7,873.2,1579.6,870.7,1580.7,870.7z M1640.3,844.8c0-1.8-0.4-0.7-0.9-2.8c-1.5,0.2-1.3,2.6-1.3,4.4c0,1.5-2.2,1.8-2.2,4.4
				c0,0.8,0.6,2.1,1.3,2.1c1.7,0,1.3-2.9,1.3-5.5C1639.6,847.3,1640.3,846.4,1640.3,844.8z M1586.9,825.1c0,2.1,2.6,4.9,3.9,4.9
				c0.7,0,2.2-2.8,2.2-3.3C1593,824.1,1586.9,822,1586.9,825.1z M1598.1,825.1c0,0,3,1.1,3.9,1.1h5c3,0,4.5,2.6,7.6,2.6
				c0.4,0,1.3,0,1.3-0.5c0-2.1-2.4-2.6-2.6-4.7l-0.7,0.3c-1.3,0-2.8,0.8-3.2-1.1h-9.7C1599.2,823.3,1598.1,823.8,1598.1,825.1z
				 M1597.3,784c-1.7,1.1-1.9,3.1-1.9,5.2c0,3.4,1.7,4.4,1.7,7.2v3.4c0,1.6,0.6,4.9,2.8,4.9c-1.1-1.8-1.5-2.8-2.4-4.4v-1.8
				c1.7,0,4.1-0.3,5-0.5c-0.2-2.1-1.7-2.6-1.7-3.9c0-1.5,2.2-1.8,2.2-3.3C1599.2,789.6,1597.7,787.6,1597.3,784z M1725.8,841.9
				c0.6,3,3.8,2.7,5.7,4.5c0.1,0,0.1,0.1,0.1,0.1c0.2,0.2,0.3,0.3,0.5,0.5l-0.4-0.5c1,0.8,2.6,1.8,3.2,1.8c4.5,0,6.5-2.8,10.4-3.9
				c0-4.7,4.5-3.6,4.5-9.1c0-1.5-0.7-3.9-1.9-3.9c-3,0-1.7,5.7-4.8,7.5c-1.9,1-5.2,0.8-8.4,2.1c0,0-1.9,1-2.4,0.8H1725.8z
				 M1715,844.3c-5.2-3.1-5-10.1-11.9-12.7c-1.1-0.3-2.8-0.5-2.8-2.6c-2.6,0-3.9-3.6-6.5-3.6c-4.8,0-11.4-2.7-14.7-5.4v-0.3
				c-0.1,0-0.3-0.1-0.4-0.1c-0.2-0.2-0.5-0.4-0.6-0.6l0.5,0.6c-1.1-0.3-2.8-1-3.7-2.1h-5.9c-1.3-0.8-3-3.9-5.6-4.9
				c-0.6-0.3-2.4,0-2.6-1.3c-2.6,0.5-5.2,5.2-7.1,6c-3,1.1-3.5,1.3-5.2,3.4c-0.4,0.5-2.4,4.4-3.9,4.4c-1.3,0-4.3-4.1-4.3-5.2
				c-1.9,0-3.2-1-3.2-2.3V808c-3.9-1-6.7-5.2-10.4-5.2c-3.9,0-5.4,4.4-8,4.4c-1.3,0-3,0.8-3,2.3c0,3.7,5.2,2.1,6.7,5.7
				c0.2,0.8,0.7,2.1,1.3,2.3c1.1,0.3,1.9,0.8,3,0.8c2.4,0,3.9-0.3,6.3-1h1.5c-1.5,3.1-8,2.6-11,4.4c0.4,2.1,2.8,1,3.9,3.1
				c1.1,2.1,0,3.1,1.1,5.7c0.2,0.8,1.5,0.8,2.2,0.8c1.7,0,2.6-2.6,3.2-4.7v2.3c3.4-1.3,4.8,5.4,8,5.4c3.4,0,9.3,1.3,11.7,2.6
				c2.2,1.3,8.2,4.2,9,7.3c1.1,3.9-0.2,7.5,2.8,11.1c-1.3,0.8-5.4,2.1-5.4,5.2c0,2.1,1.9,2.1,3.4,2.1h4.6c0-1.3,2.4-1.6,3.2-1.6
				c5.6,0,7.1,8,12.7,8h8.2c0-1.8,1.9-2.9,1.1-6.2c3-1.8,2.6-6.5,8-6.5c7.1,0,11,7.2,15.3,12.4c0.4,0.5,2.1,1,2.1,2.1
				c0,2.8,5,5.7,8.2,6.4h5.6c0.4,0.5,3.7,3.1,4.1,3.1h1.3c0-1.8,1.5-3.1,2.8-4.2c-0.6-0.3-3.9,0.3-4.3-1c-0.5-1-0.9-2.6-2.2-3.1
				c-0.9-0.2-2.1,0.8-2.6-0.5c-0.4-1.1-1.1-2.9-1.7-2.9c-1.5,0-4.1-1.3-4.7-2.6c-1.7-3.1-1.3-4.9-3.5-7.5c-0.4-0.5-4.1-4.9-4.1-6.2
				c0-2.3,4.1-1.3,4.1-4.1C1721.7,842.7,1717.2,845.6,1715,844.3z M1751.1,827.4c-2.4-2.8-4.3-5.9-8.4-7.5c0.6,2.1,2.2,1.8,3.9,3.1
				c2.8,2,2.4,4.9,5.2,6.5c-0.4,2.6-0.4,4.4,2.2,4.9c0.4,0.5,0.8,0,1.3,0c-0.2-0.5,0-1.3,0-1.8
				C1755.2,829,1752.8,829.5,1751.1,827.4z M1765.1,841.2c-0.4,2.6,0.5,5.2,3,5.7v2.1c0,0.8,0.7,1.8,1.3,1.8c0.6,0,1.5-1.3,1.5-2.1
				C1770.9,847.9,1766.4,842.2,1765.1,841.2z M1806.8,875.8c-0.2,1.5,1.3,5.4,3.5,5.4c-0.2-0.5,0-1,0-1.5
				C1810.2,877.6,1808.5,877.1,1806.8,875.8z M1797.3,871.7c0,3.1,3.4,4.1,6,4.1c0.2,0,0.9-0.5,1.1-0.5
				C1802.9,872.7,1800.7,871.7,1797.3,871.7z M1798.4,861.6c0.2,2,4.1,8.2,6.3,8.2C1803.5,866,1801.4,863.6,1798.4,861.6z
				 M1785.6,856.2h-0.4c0,2.8,5,4.9,6.7,4.9c0.7,0,1.3-0.3,1.7-0.5c-1.3-2.3-5.6-3.9-7.6-5.2L1785.6,856.2z M1775.5,848.9l1.1,0.8
				c0,0.2-0.9,0.2-1.1,0.2l3.2,2.6h1.9C1779.3,850.2,1777.8,851,1775.5,848.9z M1713,1121.9c-0.2,0-11.9-4.1-11.9,0
				c0,5.5,7.1,24.6,13.6,24.6c4.3,0,10.2-13.7,10.2-19.4c0-3.1-1.7-4.6-2.4-7.7C1719.5,1120.4,1715.9,1121.9,1713,1121.9z
				 M1723.9,1116.7c0.2-1.3,0.7-1.8,0.7-4.4c-0.7,0.3-1.7,0.3-2.8,0C1721.7,1114.4,1721.9,1116,1723.9,1116.7z M1651.5,1078.7
				c1.9,2.3,5.2,1.8,7.6,0C1656,1076.9,1655.6,1076.4,1651.5,1078.7z M1617.6,889h2.1v-3.9c-3.2-0.2-4.7,0.3-8.6,1.3
				C1612,887.5,1615,889,1617.6,889z M1751.1,989.7c-4.1-4.9-12.3-9.3-12.3-19.7c-2.8,0-6.3,0-7.1-3.4c-0.9-3.6-1.3-8.5-3.9-11.6
				c-3.7-4.4-13-6.7-14.7-12.9c-1.7-6.5-3.4-9.8-5.4-16.8c-1.1-4.2-1.1-12.4-3.7-14.5c-0.9-0.5-5-2.1-7.1-2.9
				c-2.4-2.1-1.3-6.7-2.2-10.3c-1.3-5-4.1-9.6-4.7-16.6c-3.7,2.3-2.6,5.7-6.1,8.8v23.3c-1.1,5.9-2.4,21.2-9.1,21.2
				c-4.1,0-5.2-5.7-8.2-7c-5.4-2.6-8.6-3.9-14.5-6.4c-0.8-0.3-0.8-4.2-2.1-5.2c-1.3-1-4.3-0.5-4.3-2.6l2.6-13
				c1.7-1.6,4.9-1.8,4.9-5.2c0-2.1-3-4.7-4.3-4.7c-2.4,0-3.3,2.1-6.1,2.1c-7.8,0-12.1-3.6-19.4-7.2c0.4,2.8,2.6,3.6,3.9,5.9
				c-0.6,0.2-2.4,1.8-3.9,1.8c-3.7,0-12.3,2.3-12.3,5.9c0,3.6-3.2,5.5-3.2,9.1c0,2.3,0.6,4.1-0.6,6.5c-0.4-0.2-2.2-2-3.2-2
				c-2,0-3.7,1-4.8,2.8c-0.4-4.7-2.6-9.8-6.5-9.8c-4.5,0-5.6,5.2-11.4,5.2c-0.5,6-4.8,7-4.8,14.2c-1.8,0-2.8-1-4.5-2.1
				c-1.1,2.9,0,6.7-2.4,8.5c-0.9-1.8-2.2-2.8-3.3-5.2c-2.1,1.3-2.8,3.8-2.8,6.5v4.4c0,8.8-17.7,16-25.5,17.6
				c-4.1,0.8-11.9,1.3-14.5,4.4c-2.4,2.8-7.4,9.3-11.4,9.8c0-0.8,0-1.8-0.2-2.6c-0.9,0.5-2.4,1-2.4,3.1v15c0,6.5,2.6,9.6,2.6,13.5
				c0,1.3,0.6,2.3,0,3.4c-0.7-0.8-1.5-2.1-2-3.4c-0.7,1.3-0.9,2.3-1.3,3.4c-1.1,3.9,3.3,5.2,4.3,9.1c2.8,10.1,3.5,13.7,6,25.1
				c1.1,4.6,4.3,8.8,4.3,16.3c0,6-5,7.8-5,11.6c0,3.6,10.4,9,14,9c9.7,0,12.9-8.5,20.5-8.5c2.6,0,2.6-2.1,6,0c4.7,0,8.4-1.3,13-1.8
				c1.7-13.2,15.3-8.5,26.3-12.9c4.8-1.8,6.3-5.9,14-5.9c7.1,0,19.9,2.6,23.3,7.8c1.7,2.9,6.5,15.5,8,15.5c0,0-0.9,4.7,1.7,4.7
				c4.5,0,9.9-13.5,13.8-18.1c0.2,3.9-0.9,17.3-6.3,18.7c0,1.3,1.1,2.6,2.2,2.6c3.2,0,3.5-4.6,5.4-5.7c0-0.8,0.4-1.8,0.4-2.6
				c0.8,1,2.1,2,2.1,5.2c0,2.6-0.9,4.1-1.5,5.7h2.6c1.7-0.5,2.8-0.8,4.3-1.8c0,0.2,0.2,1.3,0.2,1.3c0.2,3.3,3,6.5,3,10.3
				c0,10.6,13.8,17.3,22.2,17.3c5.4,0,3.7-5.2,8.6-5.7c0.2,1.6,9.1,7.5,10.8,7.8c1.7-12.4,19.4-7,21.8-18.9v0.5
				c0-9.1,4.5-17.1,6.3-23.3c2.2-8.3,6.1-10.9,9.9-18.1c1.1-2.1,0.4-3.1,1.5-5.2v-7.3c1.9-2.3,3.2-10.4,3.2-16
				c0-7.8-2.2-21.8-5.6-27.2L1751.1,989.7z M1879.8,1123.2c-1.1,0.5-2.2,2.3-3.7,2.3c-1.3,0-1.1-1.8-1.1-3.6c-0.7,0-1.5-0.8-1.5-2.5
				c-1.9,1-5.2,4.6-5.2,8.5c0,0.5-0.2,1-0.2,1.6c-1.7,0.3-3,0.8-3.9,2.8c-0.2,0.8-0.2,2.6-0.2,2.6s-3,5.7-4.1,6.2
				c-3.7,2.1-6.9,8.6-12.1,8.6c-1.5,0-2.6,1.6-3.4,3.4c-2.2,3.9-8.6,7.5-8.6,14.2c0,0.5,0.6,1,1.1,1c0,1.3,8.4,5.2,9.7,5.2
				c1.3,0,3.9,1.3,4.7,1.3c2.4,0,6.3-3.9,8.2-6.2c0,0,6-15,6.7-18.1c1.7,0,6.9-1.3,8-1.3c0.5-3.1-0.6-4.1,0-8
				c3.5,0,7.8-9.6,8.4-12.9c-0.9-0.5-1.3-1.8-1.3-3.9C1880.6,1124.2,1880,1124,1879.8,1123.2z M1907.4,1093c-3.5,0-3.2,2.6-7.3,2.6
				c-5.2,0-8-3.9-8-10.6h-1.3c-1.1,0-1.9,1-1.9,2.6h-1.3c-1.1-1.3-3.7-7-3.7-8.3c0-0.8,0.7-1,0.9-1.8c-1.3-0.8-1.3-2.6-2.6-4.1
				c-2.1-2.6-5.8-2.8-8.2-7.2c1.3,6.2,4.3,14.7,9.3,15.8c-0.2,0.8-0.7,1.8-0.7,2.6c0,2.1,1.7,2.9,2.4,4.9v-0.2
				c0.3,1.3,0.9,3.5,0.9,5.1c0,3.9-0.4,7.5-2.6,10.1c-1.1,1.3-3,1.6-3,4.2c0,4.6,8,2.6,8,7.8c0,3.1-2.6,4.4-2.6,7.5
				c0,2.1,1.3,3.4,3.2,3.4c4.5,0,5.8-5.2,8-9.1c0.4-0.8,3-3.3,3-5.1c0-0.8-0.9-1.8-0.9-2.6c0-2.1,2.2-2.8,4.3-3.4
				c0.2,0,0.4-0.8,0.6-0.8l0.9,1.3c2.1-3.9,1.3-9.4,4.3-12.9C1908.7,1093.7,1908.1,1093,1907.4,1093z M1908.1,935.6v-3.1
				c-1.1-0.2-2-1.1-2.6-2.3c-1.9,0.8-5,1.5-5,4.9c0,1.1,2.8,1.6,4.5,1.6C1906.8,936.6,1906.8,937.1,1908.1,935.6z M1909.2,926
				c0,0.7,0.6,2.3,1.3,2.3c2.2,0,2.8-2.6,5.4-3.4v-2.3C1914.5,922.7,1909.2,922.9,1909.2,926z M1583.3,728.2c-0.2,0.7,0,3.8-0.6,5.4
				c-0.6,1.3-4.1,0.4-4.2,3.5c-1.2,0.2-1.8,1.3-1.8,2.9c-0.4,0-0.8,0-1.2,0c-1.4-0.1-0.9-3.6-3.5-3.7c-3.5-0.1-2.6,4.9-6.8,4.8
				c-0.4,2.2-1.2,3.6-1.2,5.8c0,0.7,0.8,1.6,0.7,2.3c0,0.9-1.6,5.2-0.1,5.2c2.2,0,1.9-7.4,3.9-9.6c0,0,1.4,1.8,1.9,2.1
				c0.2-0.2,0.6-1.1,0.6-1.1c0.4,0.5,0.8,1.1,2,1.1c-0.2-0.7,0-1.3,0-2l2.7,0.1c0.2,0.7,0.6,1.6,0.8,2.3c-0.6,0.4-1,1.1-1,2.7
				c-0.1,4.3,2.3,7.9,5,8c0.6,0,1.4,0.2,2-0.2c0,0.6,0.4,1.8,1,1.8c1.4,0,2.2-1.3,2.2-3.1c0-2.5-2.3-3.2-2.3-4.8
				c0-1.3,1-1.8,1.8-3.1c0.4,0.7,1,1.1,1.1,1.8l-0.1-0.5c0.3,1.3,1.7,5.1,2.4,5.3c0.1-3.8,2.4-5.1,2.5-7.6c0-2-3.2-15.4-4.7-17.2
				C1585.6,729.3,1584.6,728.2,1583.3,728.2z M1537.2,737.1l1.4,0.1c2.4-1.8,6.2-4.6,7.1-9.8c1.6,0,3-0.4,3.4-2.4c1,0,1.2-0.7,2-1.3
				c-0.8-0.9-1.7-1.4-1.7-3.6c-0.6,0.6-0.6,1.8-1,2.9C1546,727.8,1539.3,730.4,1537.2,737.1z M1548.2,689.6c0,1.3,3.5,4.1,4.3,4.1
				c0.6,0,1-0.9,1.4-1.5l1.2,0l0,2.3c-0.4,0.5-1.2,1.1-1.2,2.5c0,1.1,1.5,3.2,2.9,3.2c1.2,0,2-1.3,3.2-1.3c2.8,0,2.9,5,5.6,5.1
				c-0.6-1.8-1.1-2.8-0.1-4.3c1.1,2,5.8,4.2,7,6.9c0.2,0.7,0.4,1.8,1,1.8c0.4,0,0.8-0.9,0.8-1.3c0-0.7,0-1.1,0-1.8
				c-1.4,0-2.5-0.9-2.5-2.8c-0.4,0.2-1.4,0.4-1.4,0c0-1.2,1-1.3,1.2-2.7c-0.4,0-0.8-0.5-1.2-0.5c-0.8,0-1,1.6-1.8,1.5
				c-1.2,0-1.7-5.2-4.1-5.2c-1.2,0-2.2,0.8-2.2,1.7c0,0.2,0,0.9,0,1.1c-2.1-1.2-4.8-6.9-4.8-10.2c0-4.7,3.6-5.1,3.7-10
				c0.1-3.8-2.5-7.2-2.4-10.2c0-0.4-0.4-1.1-0.4-1.6c0-0.2-0.4-0.9-0.4-1.1c-0.8,0.4-1.4,2.2-2.6,2.2c-1.8-0.1-1.3-4.1-3.5-4.1
				c-1.6,0-2,2.2-2,4.5c-0.1,2.7,0.9,4.5,0.8,7.2c0,2-0.5,5.2-1.3,6.7C1547.5,681.2,1548.2,686,1548.2,689.6z M1581.2,709.9
				c-1.6-0.1-2.7-1-4.3-1c-0.6,0-1.2,0.7-1.8,0.8c0.3,1.8,4.7,3.5,4.6,6.6c0,0.5-0.6,1.3-1,1.3c-0.2,0-1.6,0-2.6,0l0,1.3
				c0.2,0.7,1.6,3,2.9,3l0,1.3c-0.8,1.3-0.4,3.1,0.9,3.2c0.6,0,1.2,0,1.8,0l0-1.4c-0.8-0.5-1.5-2.7-1.7-4.5l2.9,0
				c0.2-0.9,0.6-1.5,0.8-2.9c-0.2,0-1.5-2.1-1.5-2.1s0.2-2.2,0-3.6c-0.4,0-0.8,0-1.2,0C1581.3,711.4,1581.2,710.6,1581.2,709.9z
				 M1564.2,714.3c-0.3-0.3-0.6-0.7-0.8-0.8c-0.4,0-1.2,0.6-1.2,1.1c0,2,0.7,6.3,0.7,10.2c1.8-1.3,6.4-3.2,6.4-7.1
				C1569.2,716,1565.8,715.2,1564.2,714.3z M1570.2,720.9c-1,0.2-2.1,5.8-2.1,6.5c-0.6,0-1.8,0.6-1.8,1.3c0,1.6,3.5,5.9,4.3,5.9
				c0.4,0,1.2-0.7,1.2-1.1c0-1.4-1-0.9-1-3c0-2.7,2.2-4.4,2.3-7.1C1573.1,722.1,1572.2,720.2,1570.2,720.9z M1572,729.7h1
				c0.1-3.4,2.6-4.4,2.7-8.5c-0.6,0-1.2,0-1.8,0C1573.8,725.3,1572.6,727.1,1572,729.7z M1578.1,726.9c-0.6,0.9-1.6,0.4-2.5-0.1
				c-0.6,1.4-1.8,2-1.9,3.3c0,0.5,0.8,1.1,1.2,1.1C1576.7,731.4,1578.1,729.4,1578.1,726.9z M1574,714.4c0-2.9-2.5-3.6-3.1-5.7
				l-1.8-0.1c0,0.9,0,1.8-0.1,3.4c1,0,1.8-0.2,2.8,0.1C1571.8,713.3,1574,715.6,1574,714.4z M1558.3,710.3c0.8,0,1.8-2.7,1.4-4.5
				c-0.6-2.7-2.7-2.3-5.1-4.2l-2,0C1552.7,701.6,1557.1,710.3,1558.3,710.3z M1560.4,703.1c0.4,0.5,1.6,0.3,2,0.1
				C1562,702.7,1560.8,702.9,1560.4,703.1z M1557.6,609.5c-3,0-7.6,10.1-7.6,15.5c0,3.9-0.7,7.3,3.2,7.3
				C1558.2,632.3,1562.9,609.5,1557.6,609.5z M1493.8,653.5c0-1.5-1.5-3.9-2.6-3.9c-2.8,0-10.2,6.5-11.9,6.5c-1.1,0,0,2.3,0,3.9
				c0,3.4,1.5,5.2,4.8,5.2C1487.3,665.2,1493.8,657.1,1493.8,653.5z M1463.1,817.6c0.2,0.8,1.1,3.6,1.5,3.6c0.9,0,1.5,1.5,2.8,1.5
				h1.5c-0.2-0.8-0.2-1.8-0.2-2.6c-3,0-4.3-4.9-5.4-8.8c-1.5,0.2-4.5,2.1-4.5,3.4C1458.8,816.8,1462.3,815.5,1463.1,817.6z
				 M1476.1,824.3c1.3,0,2.2-1.5,2.4-3.1c-0.6-0.2-1.3-1.3-2-1.3h-2.1c-0.2,0,0,1,0,1.3C1474.4,822.5,1474.8,824.3,1476.1,824.3z
				 M1421.3,808.5h-1.7v1c0,1.8,2.8,6,3.9,6.2c0.2-2.6-0.8-4.1-2.1-6V808.5z M1412.8,792.8l-1.1,0.5h0.2c0.2,1.5,3,5.7,3.9,5.7
				C1417.6,798.9,1414.1,793.8,1412.8,792.8z M1608.9,546.7c0,1.3,1.1,2.8,2.2,2.8c0.7,0,1.5-1.1,2.6-1.1c-0.4-0.8,0-1.5,0-2.3
				c0.2,1.3,0.4,2.9,1.7,3.4l-0.8,3.6c0,0-2.2,3.6-2.2,4.2c0,1,1.3,4.1,3,4.1v-1.5c0,0.8,0,2.3,0.7,2.3c3,0,4.8-8,5.4-12.7
				c0.6,0.5,1.3,0,1.9,0c-0.4-0.8,0-1.8,0-2.6l-1.9-2.1c-0.7,0-0.2-1.8-0.2-2.6c-2.6,0-3.9-2.1-5.6-2.1
				C1615,540.2,1608.9,545.1,1608.9,546.7z M1628.8,548.7c2.8,0,3.2-4.1,5.2-6.5c0.7,0.3,1.5,1.8,3.2,1.8c2.2,0,4.8-9.1,0-9.1
				c-3,0-3.7,4.4-7.3,3.1c0,0.3-4.1,3.9-4.1,3.9c0,1.3,0.4,1.8,1.7,2.8C1627.3,546.1,1627.7,548.7,1628.8,548.7z M1652.1,517.1
				c-1.9,0-3.2,8-6.9,8h-13.4c-5.6,0-7.6,6.5-12.1,10.1c-0.8,0.5-2.8,1-2.8,1.8c0,1,1.5,1,3,1c4.5,0,8.4-2,11.2-3.6
				c1.7-1.1,3,0.2,4.8-0.8c0.6-0.3,0.9-2.1,2.2-2.1c2.6,0,3.9,1.5,6.5,2.3c0,1-0.7,2.8-0.7,4.4c0,0.8-0.7,2.1,0,2.1
				c1.5,0,1.3,2,3,2.6c1.1-2.6,3.7-6.7,5.2-6.7c0.6,0,1.5,0,2.2-0.2c-0.2,0-2.2-3.1-2.2-4.2c0-0.8,0.6-2.1,1.3-2.1
				c1.9,0,1.7,4.4,6.2,4.4c1.7,0,3-1.6,4.3-3.1h2.2c0,0.5,0.7,1.3,1.1,1.3c0.9-3.6,2.8-3.9,5.8-6.2c-0.2,1.8-1.1,2.1-0.2,4.1
				c2.6-1,2.6-3.6,5.2-5.2c-0.5-1.5-1.1-2.6-1.1-4.9c0-3.3,2.4-4.9,2.4-7.2c0-2.8-0.7-10.9,1.5-11.6c0.6-0.3,1.3,0.3,2-0.5v-1.5
				c0-3.4,3-3.9,3-8c0-3.6-3-5.4-3-9c0-1.8,0.2-3.3-0.4-5.2c-0.2-0.8-1.1-1.3-2.6-1.3c-0.6,0-0.2,2.3,0.4,2.3c0.2,0,0.4,0.2,0.6,0.2
				c-2.6,2.6-2.3-0.8-2.8-0.8c-2.8,0-5,6.5-5,9.6c0,1.3,0.8,1.3,0.8,3.1c0,8.3-7.3,19.2-11.9,21c-2.6,1-3,3.6-6.3,3.6
				c-0.4,0-1.1-0.8-1.1-1.3c0-1,0.5-2.1,1.1-2.8C1655.2,510.9,1652.3,517.1,1652.1,517.1z M1676.5,459.4c-0.4,1.8-3.9,3.6-3.9,6.5
				c0,1,1.1,1.5,1.1,2.6v5.9h1.3c1.7-2.1,3.5-1,5.2-3.9c-0.8-1-4.1-1-4.1-3.6c0-4.4,3.7-1.8,6.5-1.8c0-0.8,0.9-1.8,1.5-2.1
				c3.7,2.8,5.9,3.4,9.3,5.9c1.7-3.1,3.3-9,7.8-9c3.2,0,4.7-0.8,6.7-2.3c-0.9-0.3-2.6-1.8-2.6-3.4c0-1.3,0.9-1.8,1.3-3.1
				c-1.3-1-2.8,0.5-4.5,0.5c-8.4,0-11-8.3-16.8-12.9c-0.4,0.8-1.3,1.6-1.3,3.4c0,1,1.1,1.5,1.1,2.6c0,3.4-1.5,13.5-5.2,13.5
				c-0.6,0-1.5,0.2-2.2,0l0.5,0.5c-0.7-0.5-1.1-0.8-1.5-1.3V459.4z M1707.7,451.7c-0.4,0.8-0.6,2.3,0,2.3c1.9,0,4.5-3.8,5.4-5.4
				l-0.7-0.7C1710.6,448.1,1708.5,450.2,1707.7,451.7z M1712,447.5l0.3,0.3c0.1,0,0.2-0.1,0.3-0.1L1712,447.5z M1724.1,438.2
				c-2.6,0-4.8,5.7-4.8,5.7c0,0.3-0.2,1.3,0,1.3c3,0,3-5.2,8-5.2v-1.8C1726.4,438.5,1725.4,438.2,1724.1,438.2z M1734.2,435.9
				c1.7,0,3.5-3.6,3.7-5.2c-0.4,0-3,0-3.5,1.6c-0.2,0.8,0.4,2.1-0.2,2.1C1733.8,434.3,1733.8,435.9,1734.2,435.9z M1693.2,363.7
				c-0.9-3.4-2.6-6.7-2.6-11.9h-1.5v5.5c0,1.3-0.9,1.8-0.9,3.3c-3.2,0.8-4.5,7.8-4.5,13.2c0,3.9,3.3,5.4,3.3,9.3v15.3
				c0,3.1-1.1,4.1-1.1,8c0,3.1,1.3,3.6,1.3,7.2c0,3.9-0.9,7-0.9,11.6c0,1.3-0.6,7.5,0,7.5c2.6,0,2.6-5.7,5.2-5.7h2.1
				c0.2,1,1.3,2.9,2.2,2.6c0.2,0,0.7-0.3,0.7-0.3c-1.7-4.4-6.3-7.2-6.3-13.2c0-6.7,0.7-15,6.5-15c1.9,0,3.5,1.6,4.5,3.4
				c-1.3-6.2-4.1-11.4-5.8-17.9c-0.4-1.5-1.9-4.4-1.5-7v-6.2C1692.3,369.9,1694,367.3,1693.2,363.7z M1131.6,154.8
				c0,0,5.8-0.3,6.5,0c3.7,1.3,1.7,5.4,3.2,9.1c0.4,1.3,3.9,0,5.4,0c0.7,0,1.1,1.6,1.5,1.8h16.9c-0.2-0.5-0.5-0.9-0.7-1.3
				c-4.8-5.1-11.8-7.5-11.8-16.9c0-16.6,14.9-33.9,25.9-37.5c3.9-1.3,5-7,10.4-7c2.6,0,3.5-5.2,4.8-5.9c7.1-4.1,12.5-2.1,20.1-6.4
				c5.4-3.1,22-4.7,22-13.5c0-2.8-6.1-6.5-8.6-6.5c-10.8,0-21,14.8-32.4,14.8c-2.6,0-3.9-3.1-6.5-3.1c-4.1,0-4.1,3.1-6.9,3.1
				c-8,0-14,12.4-19.4,12.4c-3.3,0-5.4,1.8-8.6,1.8c-1.5,0-2.2,1.5-2.2,2.6c0,1.5,1.5,2.6,1.5,4.6c0,7.3-11.2,11.1-11.2,15.5
				c0,2.1,3,2.6,3.2,5.7c-3.5,1-10.4,2.9-10.4,7.3v3.9c0,4.7-6.5,4.1-6.5,10.4C1127.7,152.8,1131.6,154.8,1131.6,154.8z
				 M1164.2,164.2c0.1,0.1,0.1,0.2,0.2,0.3c0.2,0.3,0.5,0.5,0.7,0.7L1164.2,164.2z M1980.9,222.9c-5.8,2.3-9.3,1.8-13,7
				c-2.4,3.4-3.2,12.9-7.6,12.9c-9.7,0-21-22-34.6-22c-4.3,0-2.1,6.5-3.2,9.1c-2.6,6.2-15.1,4.4-15.1,15.5c0,4.1,25.6,18.6-6.5,19.4
				c-16.8,0.4-30.4,29.8-49.7,29.8c-6.5,0-22.5-24-40,20.7c-2.1,5.4,0,8.5,0,11.6c0,4.6-7.5,7-7.5,15.5c0,5.4-9.7,7-8.6,14.2
				c-8.9,2.6-11.9,16.8-16.2,24.6c-6-5.7-8.6-37-8.6-46.6c0-11.1,7.6-17.1,13-20.7c6.5-4.4,10.6-14.2,15.1-22
				c3.9-6.7,9.2-4.5,15.1-9c16.9-13.1,5.6-18.7,3.3-18.1c-23.6,34.8-22,12.4-18.4,9c-7.3-1.3-9.1,0-13,0
				c-14.9,0-21.4,10.1-24.9,27.2h-11.9c-5.4,0-9.5-5.2-18.3-5.2c-7.1,0-32.8,2.6-41,5.2c-9.3,3.1-18.1,16.6-24.8,24.6
				c-4.5,5.4-16.2,13.5-16.2,20.7c0,1.6,6.6,19.3,19.4,7.7c4.3-3.9,13.7,9.8,13.7,16.7c0,5.7-2.5,11.6-3.8,14.2
				c-3.4,7.2-0.8,12-2.3,19.5c-1.3,6.7-6.1,15.2-9.5,19.3c-8.7,10.4-20.3,41.5-32.6,41.5c-6.7,0-15.1-2.6-15.1-2.6l0,0
				c-5.2,4.9-6.9,9-9.7,16.1c-0.9,2.1-4.7,4.7-6.3,6.5c-1.7,2.1-3.9,3.9-6.5,3.9c-0.4,4.4,1.7,6.7,3.7,9.1c4.8,5.7,8,11.6,8,21.7
				c0,5.9-1.3,8.8-4.3,9.8c-1.3,0.5-6.7,0.8-6.7,3.1c-2.6,0.8-3,0.8-4.3,2.4h-3.2c0-1.3,1.1-2.1,1.3-3.4c-1.1-0.2-1.1-1.5-1.1-2.6
				c0-1.8,1.9-5.2,1.9-6c0-1.5-1.1-2.8-1.1-4.4c-1.3-0.3-1.7-1.3-2.2-1.8v-2.6c1.7,0,3.5-1.5,3.5-3.4c0-3.1-3.2-5.1-5.8-5.1
				c-1.5,0-2.4,1.2-3,1.2c-1.5,0-2.2-3.1-2.2-4.4c0-3.1,2.4-2.8,2.4-5.4c0-3.1-1.1-3.1,0-5.7c-3.3,0-4.3-2.8-6.9-2.8
				c-6.9,0-11.9,7.8-17.9,7.8c0-4.7,4.1-6.5,4.1-10.6c0-1.5-2.4-4.9-4.1-4.9c-2.2,0-3,2.6-3.5,3.4c-1.7,3.4-6.7,7.2-9.3,9.6
				c-3,2.6-9.3,0.8-9.3,6.2c0,2.6,3.7,3.6,4.5,4.4c2.6,2.3,1.7,4.9,4.3,7c1.7,1.3,3.9,0.5,5.6,0.5c1.3,0,1.3-5.7,3-5.7
				c2.4,0,3.3,2.1,4.8,3.1c3,2.3,6.3-0.5,8,2.3c-4.3,5.2-13.6,5.2-15.5,12.2c-0.9,3.1-4.6,3.4-4.6,6.5c0,3.6,4.1,6.2,5.8,6.5
				c0,0.8,0.2,4.9,0.2,4.9h0.5l-0.2,0.2c1.9,1.3,1.9,4.4,2.6,5.7c3.9,7,6,11.1,6,22.3c0,7.5-3.2,10.1-3.2,15.8
				c-3.2,0.8-9.1,11.1-10.4,14.2c-2,4.9-3.5,14.5-8.6,14.5c-0.4,2.6-1.5,3.6-3.2,4.7c-6,4.2-8.4,11.4-18.4,11.4
				c-2.2,0-3.2-2.1-5.4-2.1c-0.4,0-2.6,4.9-2.6,4.9c-2.6,3.1-6.7,2.1-10.8,4.4c-1.7,1.1-6.1,1.8-7.6,3.6c-1.7,2.1-0.4,5.4-2.8,5.4
				c-2,0-1.3-5.2-1.1-6.5c-4.1-2.3-6.7-0.8-10.4-2.9c-4.3,8-14.9,9.9-14.9,21c0,2.3,1.1,2.9,1.9,3.9c5,6,7.1,12.7,12.5,16.8
				c5.2,4.1,8.7,15.5,8.7,24.1c0,6-2.6,8.3-2.6,13c-6.9,2.1-7.6,4.9-13.2,8.3c-2.6,1.6-2.2,5.7-4.8,5.7c-0.7,0-0.7-1.6-0.7-2.3v2.9
				c0,2.6-4.3,6.5-5.2,6.5c-0.9,0-1.7-3.6-1.7-5.2c0-2.1,0-3.1,0.9-3.6c-0.9-0.5-1.3-2.6-1.5-3.9c-3.2,0-7.5-1.2-7.5-5.2
				c-4.8,0-2.4-3.8-5-7c-3-3.6-6-3.9-9.5-5.2c-0.4,0-1.1-3.3-1.1-3.3c-0.7-2.9-3.2-3.3-5.6-3.3c-1.7,0-1.3,1.5-1.3,2.8
				c0,2.4,0.9,2.9,0.9,4.9c0,7.8-6.3,9.8-6.3,16.8c0,8,7.3,4.9,7.3,12.4h-0.4c0.9,1.8,1.1,6.5,2.6,8.3c5.8,7,18.6,8.5,18.6,21.5
				c0,2.6-0.9,2.6-0.9,4.9c0,4.6,3.2,6.2,4.1,9.3c0.9,3.4,0.9,4.7,1.9,7.5c-1.7,0.2-1.9,0.2-2.8,0.2c-0.6,0-0.8,1-1.5,1
				c-2.1,0-2.4-1.8-3.6-2.3c-6.7-2.6-12.7-10.4-15.1-18.9c-1.9-7.5-2.4-12.9-4.7-18.9c-1.5-3.6-3-12.9-6.5-12.9
				c-2.1,0-0.8,1.6-2.8,0c-0.4,0,0-1,0-1.6c0-3.6,0.4-6.2,1.1-9.8h0.4h0.6c-1.7-1.1,0-7,0-9.8c0-11.4-5.6-18.1-5.6-26.4
				c-2.8,0,0.9-7.8-1.3-11.6c-0.6-1.3-2.4-0.8-2.8-1.3c-1.3-1.6-0.6-2.6-1.9-4.1c-3.7,4.4-5.2,11.9-11.3,11.9
				c-3.2,0-3.5-3.1-3.5-6.5c0-3.4,1.1-4.9,1.1-7.8c0-1.3-1.1-2.1-1.3-3.4c-1.5-5.5-4.1-9.6-6.3-13.7c-3-2.9-5.4-4.9-7.1-8.3
				c-1.7-3.1-1.3-7.3-2.2-10.4c-0.9-3.6-4.5-5.2-7.8-6c0,7.8-6,9.3-11.7,9.3c-3.5,0-3.5-1.3-5.2-2.6c-1.5,3.9-6,4.2-6.7,6.5
				c-0.8,3.6-0.6,6.5-2.6,8.8c-3.9,4.7-10.1,6-13.6,10.1c-4.3,5.2-8.2,10.4-12.3,15.3c-1.7,2.1-4.1,5.2-5.6,5.7
				c-3.9,1.6-8.4,2.3-8.4,7.8c0,4.6,1.5,7.2,1.5,11.4c0,6.5-2.6,10.6-2.6,15.5l1.1,6.7l-1.1,0.3c0,0.8-1.5,0.8-2.2,1
				c-3,1-2.4,7.8-4.1,8.8c-2.6,1.5-3,0.5-4.1,3.1c-0.9,2.1-1.1,5.2-2.8,5.2c-1.7,0.2-3-0.8-3.3-2.6c-1.1,0-1.7-1.8-1.9-2.6
				c-1.7-6.2-4.1-11.4-5.6-16.9c-0.9-3.6-3.9-6.2-4.8-8.3c-1.7-4.1-0.7-7.5-2.4-10.6c-1.7-3.4-1.7-5-2.6-8.3
				c-1.1-3.9-5-12.4-6.5-18.1c-1.3-5.1-3.7-10.1-3.7-15c0-0.8-0.3-2.9-0.3-3.7l0.2,0.2c0.1-3.5,1-4.1,1-7.4c0-4.2-2.1-7.2-2.1-10.6
				c0-0.8,1.3-2.6,1.3-3.6h-1.7c-2.8,3.4-3,12.1-8.6,12.1c-6.7,0-9.3-8-12.5-11.9c1.9-1.6,3.4-0.2,5.4-1c1.7-0.5,1.9-2.8,2.8-3.9
				c-1.7-0.5-3.3-0.5-5-0.5c-4.3,0-10.6-5.1-12.7-9c-1.7-3.4-3-9.3-5.6-10.4c-2.4-0.8-4.1-0.2-6.5-0.2c-2.6,0-3.2,2.1-5.4,2.1
				l-5.6-1.8c-0.9,0.5-1.5,1.3-1.9,1.8l-7.6,0.5c0,0.3-0.9,0-1.1,0c-4.1,0-13.6-3.1-19.4-3.1c-1.1,0-7.3-2.1-7.6-2.3
				c-2.1-2.6-2.1-10.3-6.7-10.3c-2.4,0-3.2,2.3-4.5,3.9h-10.8c-3.5-1.3-5.2-4.7-7.4-7.3c-2.6-3.1-6-1.6-8.4-4.4
				c-1.3-1.6-0.6-3.6-1.1-4.7c-2.4-5.7-7.1-13.7-13.2-13.7c-3,0-4.3,4.6-4.3,8.3c0,2.6,0,3.9,0.5,6c1.3,6.2,7.4,17.3,12.3,18.6
				c0,2.8,1.3,3.6,1.5,5.9c2.6-0.8,2.2-4.1,4.3-4.7c0.2,1,0.2,1.8,0.2,2.8c0,3.1-1.5,5.2-1.5,8.3c0,3.6,5.6,5.4,8.8,5.4
				c14.5,0,15.6-10.6,23.3-17.6v9.6c3,7.5,7.1,8.8,13.4,11.1c2.4,0.7,2.6,5.1,4.1,6.2v-0.3c1.1,2.3,4.1,1.8,4.1,4.2
				c0,5.9-6.3,8-6.3,14.2c-3.2,0-5.4,1-6.3,4.1c-0.9,3.1-0.6,7.5-3.2,7.5c-3.3,0-3,7.5-6.3,7.5c-1.9,0-6,4.4-6,7.5
				c-5.8,1.3-19,4.1-19,9.8c0,0.8,0.4,1.8,0.8,2.3c-4.9,2.8-11.6,4.7-16.8,6.2c-2.6,0.8-11.2,8-14,9.6h-6.7
				c-3.7,3.1-4.3,5.2-8.8,5.2l-1.3,1c-0.7,0-6.2-3.2-6.8-3.6c-0.5-0.3,1.2-0.3-0.3-2.9c-2.2-4.1-3.8-8.3-3.8-13.3
				c-2.4-0.2-0.7-5.1-0.2-7.5c1.1-5.7-2.6-8-4.9-10.9c-2.6-3.1-8.6-12-8.6-18.3c-7.5-2.1-9.3-7.4-9.3-17.2c0-5.9-2.8-7.3-3.7-12.2
				c-1.1-1-2.2-2.6-2.8-3.4c-0.9-1-3.7-0.5-4.3-1.3c-1.3-1.6-0.9-5.5-1.3-7c-0.6-2.6-2.2-4.7-3-6.2c-2.6-4.6-4.7-8.5-7.1-12.9
				c-0.7-1.3-3.7-5.4-3.7-6.2c0-1.8,0.7-5.1,1.1-8.2c-0.9,3.7-3.2,10.4-3.9,12.9c-4.5-0.8-8.2-12.4-11.9-16.8v4.4l20.5,43.5
				c-1.1,5.4,5.4,16.8,8.6,19.9v13.7c2.2,7,6.5,7,9.7,12.2c3.9,6.2,1.5,13,5.4,17.6c3.4,4.2,5.8,4.4,9.7,7.8
				c3.5,3.1,5.3,13.9,12.4,13.9c0,4.4,2.1,5.1-0.1,8.1c2.8,2.6,5.6,10.9,9.3,10.9c3.5,0,3.7-3.4,6.5-4.4c3.2-1.3,5.4,0.5,8.6,0
				c8.2-1.6,16-5.4,23.8-7.8c0.6,1.5,1.5,2.3,1.5,3.9c0,14.8-9.7,33.9-15.1,42.7c-6.5,10.3-9.3,19.7-17.3,27.2
				c-14.2,13.5-29.6,17.6-35,40.7c-1.5,6.4-7.1,8.2-7.1,15.5c0,8,1.7,11.6,1.7,19.4c0,8.8,8,13.2,8,18.1c0,1.6-1.3,3.4-1.5,3.9v6.5
				c0,4.2-0.6,9.1-0.6,16.3c1.3,1.5,1.7,3.1,1.7,5.2c0,20.2-28.5,17.9-30.9,34.9c-3,0.5-6.5,4.9-6.5,7.8c0,5.7,6.1,9.6,6.1,17.3
				c0,4.2-0.4,12.7-1.7,15c-1.3,2.1-5,1.1-6.5,1.8c-5.2,3.1-8.2,5.7-10.8,12.2c1.9,1.3,3.2,3.1,3.2,5.4c0,7.2-6,12.9-8.6,16.1
				c-4.8,5.7-5.2,11.7-8.6,16.8c-5.4,8.3-7.8,15.5-16.6,20.7c-3.7,2.1-9.1,0-9.7,4.7c-2.8,0.3-4.5,1.8-6.5,1.8c-2.4,0-3.7-2.6-6-2.6
				c-9.1,0-14.5,7.8-22.7,7.8c-3.7,0-5.6-2.3-6.9-5.2c-1.3,0.3-1.7,1-2.2,1.3c0-5.2-2.2-10.9-3.9-12.9c1.7-2.1,2.8-4.2,2.8-7
				c0-4.1-6-11.9-7.1-14.2c-7.8-15.8-17.7-31.1-17.7-53.8v-7c0-3.6-2.6-4.9-4.3-8.5c-6.1-12.2-12.5-22-12.5-38.8
				c0-18.1,13.6-22.5,13.6-36.2c0-6.5-2.2-9.1-2.8-14.7c-1.5-11.1-3.2-15-5.4-21.5c-1.7-5.2-0.9-11.1-3.7-15.5
				c-5.6-8.6-17.9-17.6-17.9-29.8c0-2.8,3.4-9.3,5-10.4c-0.9-2.3,0-2.9,0-3.9c0-3.1,0-10.9,2.2-13c-2.4-5.7-6.3-10.9-13.6-10.9h-9.1
				c-6.5,0-8-15-16.9-15c-10.8,0-18.8,5.9-27,9c-3.2,1.3-4.3,4.7-7.6,4.7c-3.2,0-8.7-3.9-13-3.9c-8.4,0-12.1,5.2-20.5,5.2
				c-2.6,0-5.6-1.3-6.5-2c-6.1-5.5-18.6-14.3-23.1-22.5c-4.1-7.5-5.4-13.7-10.8-18.9c-1.5-1.3-13-13.5-13-14.5
				c-1.1-1.5-1.7-2-2.8-3.6h0.7c0-3.9-1.1-6-1.1-8.3c0-3.6-1.7-4.9-3.2-8.5c4.8-2.9,9.1-16.8,9.1-23.3c0-11.4-4.3-18.7-4.3-29
				c0-5.2,5-8.3,6.1-12.4c2.8-10.1,9.3-23.8,14.5-32.4c3-4.9,8.6-4.4,12.5-7c3.2-2.3,8.6-7.5,9.7-11.7c2.6-9.6-0.6-13.7,3.7-20.2
				c5.6-8.5,13-16.6,18.4-24.6h-0.4c1.7-2.6,2.2-4.9,4.3-7c5.4,4.7,11,6.5,18.4,6.5c4.5,0,5.4-3.1,8-4.6
				c8.4-4.9,24.4-12.2,34.1-12.2c3,0,5.8,2.6,7.5,2.6c2.4,0,5.9-3.9,9.1-3.9c2.8,0,4.1,1.8,6.5,1.8c4.3,0,4.5-3.9,8.6-3.9
				c4.1,0,3,4.6,6.5,4.6c1.3,0,2-1.3,3.3-1.6c-0.2,3.9-3.3,3.4-3.3,6.7c0,2.3,2.8,3.4,2.8,5.7c0,3.9-2.8,5.9-2.8,9.8
				c0,6.4,5.6,12.2,9.7,12.2h6.1c14,0,19,20.7,35,20.7c2,0,4.3-2.6,4.3-3.9v-5.2c0-8.3,5.2-8.3,11.9-10.8l0.6,0.5h4.7
				c0,3.6,2.4,4.4,3.2,5.9c1.9,3.1,6.9,1.1,10.4,2.6c6.9,3.1,16.6,7,24.2,7c6.9,0,9.1-3.9,15.8-3.9c4.1,0,6.5,3.3,11.2,3.3
				c3.2,0,3.2-1.3,6-2.1c0.2,0.6,0.5,1.2,0.7,1.8l-1.2-3.4c0-1.8,1.5-1.8,1.7-2.8c1.5-5.7,2.2-8.5,3.4-13.7
				c1.3-5.2,5.6-6.5,5.6-12.4c0-4.4-1.1-8-1.1-11.1c0-1.6,1.1-2.1,1.5-2.6v-2.6c-1.7,0.8-2.4,2.3-4.1,2.3c-2.2,0-3.5-1-4.3-2.1
				c-3.4,3.1-4.5,6.5-10.8,6.5c-4.5,0-6.3-6.5-10.8-6.5s-3.7,5.9-7.5,5.9c-4.1,0-6.3-7-10.4-4.7H983c0.6-0.2,1.5-1,1.7-1.5
				c-1.3-1.5-7.6-5.4-5.4-8c-1.9-3.4-4.3-3.1-7.3-4.9c2.1-2.6,4.5-2.1,4.5-7c0-1.8-0.4-1.8,0-3.1c-1.5,0-3.7,0.3-3.7-1.3
				c0-8,15.6-6.5,19.4-8.8c-0.4-2.1-1.7-1.3-1.7-3.1c0-2.3,4.1-1.3,5.2-1.3h6.7c2.6,0,6.5-3.4,8.9-5.2c2.8-2.1,8.9-2.3,12.5-2.3
				c5.8,0,5.6,3.9,10.6,3.9c0,3.1,8.4,4.9,10.8,5.1h12.3c4.4,0,7-4,10.8-6c-0.1,0-0.2,0.1-0.2,0.1l-0.9,0.2
				c0-20.4-24.8-17.8-30.2-33.1c12.6-3.8,6.9-10.9,6.5-12.4c1.1-0.5,3.9-4.4,3.9-4.4c-5.8,2.6-21.6,9.6-21.6,11.6
				c0,3.1,2.8,3.9,3.7,3.9c0,0,5.6,1,6,1c-1.7,2.6-12.1,8-15.1,8c-3,0-12.9-19.4-16.8-19.4c-4.8,0-5.2,6.7-10,8.3
				c0.2,1.3,0,2.6,0.2,3.9c-2.2,0.5-4.5,1.8-4.5,4.4c-0.8,4.2-0.7,2.1-1.4,3.6v6.7c-2.2,2.6-6.1,7.8-6.1,11.4
				c0,5.2,5.8,8.8,7.2,11.1c-0.9,1-1.7,0.8-2.8,1c-1.9,0.8-3.4-0.2-5.4,0.8c-2.8,1.6-3.5,4.9-6.3,4.9c-3.2,0-5.2-5.2-9.1-5.2
				c-3.5,0-4.3,2.3-7.1,3.4c0.4,2.1,0.4,3.6,0,5.7c-3.2,0-3.7-3.9-5.6-3.9c-1.1,0-2.4,1.6-2.4,2.9l4.1,5.7c-0.2,1.5-0.9,2.3-0.9,3.1
				c0,0.8,5.9,7.2,7.6,7.2c0,0.8,0.4,1.8,0.9,2.3c-1.1,0.8-3.2-0.2-3.7,1.6H958c-2.4-0.5-4.5-2.6-5.6-3.9v2.1
				c0.6,1.5,1.3,2.3,1.3,4.4c0,1.5-2.2,4.6,0,5.9h-3c-3.5,0-6.5-4.2-6.5-8.5c0-1.8,2.2-2.6,2.8-3.9h-3.7c-0.9,0-1.3-2.3-1.3-2.8
				c-0.9-3.6-2.6-6-4.5-8.3c-2.6-3.1-6.1-5.4-6.1-10.9V476c0-3.6-4.8-9.1-7.8-10.9c-3-1.8-6.5-2.1-6.5-5.7h-3
				c-4.8,0-10.1-8.8-10.1-14.8h-6.5c-2.8,0-1.5-5.4-2.8-7c-2.4,1.8-7.1,1.8-7.1,4.7c0,0.5,0.6,1.5,1.1,1.5c-0.4,1.5-0.9,3.1-0.9,4.6
				c0,3.9,1.9,5.4,4.5,6.5c3.2,1.3,5,5.7,5.6,8c0.8,3.6,2.4,7.8,4.1,8.8c3.2,1.9,5.4,0.5,8.6,0.5c0,0.8,0,1.6-0.4,2.1
				c-0.9,3.1,4.3,4.4,5.6,5.2c4.3,2.6,9.5,4.7,8.9,10.1c-2.2-0.5-3.5-3.9-6.9-3.9c-2.6,0-4.7,1.6-4.7,4.2c0,3.4,3.9,4.1,3.9,7.5
				c0,1.3-2.8,1.3-2.8,1.3c-1.9,2.3-1.5,7.8-4.5,7.8c-1.5,0-2.4-0.8-2.4-1.8c2.6,0,3.7-3.9,3.7-7c0-3.9-1.7-4.9-2.2-7.2
				c-0.6,0-5.8-6.2-6-7.7c-0.9,0-4.1-1.1-4.1-2.6c-6.7-1.8-8.2-4.1-11.9-8.5c-1.5-1.8-4.8-2.8-5.2-4.7c-3.9-6-5.2-16.6-13.4-16.6
				c-3.9,0-4.1,3.4-6,4.4c-4.1,2.3-6.9,7-11.7,7c-4.8,0-7.8-2.8-12.1-2.8c-3.2,0-6.7,2.6-6.7,6.5l1.3,5.7c-1.3,5.2-6,7-10.6,8.3
				c-3.9,1-10.2,11.6-10.2,17.3c0,2.1,1.1,2.8,2.2,3.4c-2.8,5.2-4.1,8.3-8.6,10.9c-2.6,1.5-3,8-7.3,6.5v0.2c-2-0.7-5.6,0.5-6.7,0.5
				c-5.2,0-8,5.2-12.8,5.2c-3.2,0-3.4-9.6-8.4-9.6c-3.7,0-6,1.8-9.3,1.8c-1.3,0-1.7-1.3-1.7-2.1v-10.4c-1.7,0-3.5-1.5-3.5-3.6
				c0-3.3,2.4-4.1,2.4-5.9c0-6.5,1.9-13.2,1.9-19.9c0-3.9-2.4-7.5-2.4-9.9c0-1.5,7.3-7,8.6-7c0.9,0,2,1.5,3.2,1h9.7
				c0.9,1,2.6,1.3,3.7,1.6h10.4c2.6-0.8,3.9,1,6,1c1.5,0,4.8-1.3,5.4-1.3c0-5.2,2.8-6.7,2.8-11.7c0-1-0.2-5.6-0.2-7.1l-0.4,0.4
				c0.4-1,0.9-2.8,0.9-3.9c0-2.3-1.3-1.8-1.3-3.9c-4.3,0-5.6-4.6-5.6-8.8c-1.3-0.3-1.5-1.6-2.6-1.8c-3.4-1.3-13-3.4-13-7.3
				c-0.2,0-0.2-0.8-0.2-1c0-2.3,6-3.9,8.2-4.7c0.7,1.6,4.1,2.6,5.8,2.6c1.7,0,4.1-1,5-1.3V409c-1.5-0.5-0.9-4.4-1.1-5.2v-2.1h2.2
				c1.7,2.1,3.9,3.4,6.5,3.4c1.7,0,3.3-1.8,3.7-3.9c6.5,0,8.2-5.7,9.5-11.9c1.3,0,1.9-0.3,3-0.5c1.3-0.5,9.9-4.6,10.8-5.7
				c1.7-2.1,1.1-5.2,1.1-8.3c0-1,1.9-2.6,2.2-2.9c3-3.6,6.1-7.8,11-7.8c2.8,0,1.5,0.8,3,0c0.6,0.8,1.3-1.3,1.7-1.8
				c1.5-1.8,3.5-0.3,5.4-0.3c1.3,0,4.8-2.3,4.8-4.4c0-1.3-1.5-6.2-1.5-6.5c-0.9-7-4.3-9-4.3-15.3c0-10.9,8.4-11.6,13.8-16.3v3.1
				c-1.1,2.6-1.3,4.1-1.3,6.7c0,2.6,2.4,2.9,4.1,2.9v2.1c0,1.3-2,1.8-2.6,2.6c-2.2,2.6-4.8,4.9-4.8,9.6c0,2.6,1.1,4.4,2.4,4.6
				c0,1.6,0.2,2.1,0,2.8c2.4,0,3.3,1.1,5.2,1.1c0.4,1.3,0.9,3.1,1.5,3.1c5.8,0,9.9-5.9,14.9-5.2c-0.2,1.3-1.3,2.1-1.3,2.9
				c0,0.5,3.7,3.6,3.7,3.6c2.4,0,2.6-1.8,3.7-2.3c3.7-2.1,6.5-1.3,9.7-3.1c2-1,5.4-4.9,8-4.9c2.8,0,5.8,0.3,7.3,1
				c-0.4,1-0.9,2.3-0.9,2.8c2.6,0,5.3-0.3,7.8-0.6c0.4-9.1,7.3-7.7,7.3-17.8c0-6.2,4.8-18.1,8.7-18.1c3.7,0,4.3,6.5,8.6,6.5
				c2.6,0,8.3-4.7-2.6-16.9c-3.3-3.7,7.6-9,12.3-9c4.7,0,7.1,1.8,10.8,1.8c2.8,0,9.3-3.6,11.9-5.7c-1.5-4.9-3.7-6.2-5.4-9.1
				c-2.2,5.2-12.1,6-16.2,5.2c-4.3,1.6-9.3,3.9-13,3.9c-2.8,0-4.7-0.5-4.7-3.4c-4.5,0-9.3-3.6-9.3-9c0-2.6,2.4-4.4,3-5.7
				c-2.2-1-4.1-7-4.1-9.8c0-1.8,0.4-3.4,0-5.2c9.1,0,13.8-14.2,19.4-18.1c3-2.1,8.2-3.4,8.2-7.8c0-6.5-7.1-7.8-12.5-7.8
				c-7.1,0-13,3.1-13,10.3c0,3.1,0.7,4.4,0,6c0,5.9-9.9,11.1-14.5,14.2c-3.7,2.6-7.6,3.6-9.7,8.3c-1.7,3.6,0.4,8.5-2.8,10.3v5.2
				c1.1,1,1.7,2.8,1.7,4.6c3.9,0.8,9.7,5.4,9.7,10.4c0,3.9-6.5,10.4-8.6,10.4c-4.3,0-6,7.5-6,12.9c0,3.1,1.9,4.1,3.2,4.4
				c-0.7,7-5.9,7.5-6.5,12.4h-5.8c-3.7,0-5,8.3-10.4,8.3c-1.7,0-4.7-10.9-4.7-12.1c0-0.8,0.4-1.8,0.4-2.6c-3.7-4.4-3.2-8-4.7-13.7
				c-1.1-3.8-4.3-4.9-4.3-9.5c0-1.3,0.6-2.7,1.1-3.7c-2.4-1.5-2.9-3.7-4.3-6.1c-4.5,7.8-11.4,17.6-20.5,17.6c-1.3,0-9.7-6.2-9.7-7.2
				c0-2.1,2.8-3.4,3.7-3.9V299c-3,0-3,0-5.6,1.3c0-1.8,2.4-4.9,3.5-6.7c-3.3-4.7-3.7-11.1-3.7-18.4c0-3.9,3.4-3.6,4.7-6
				c2.6-4.4,5-7.5,9.7-9.1c3.9-1.3,4.7-7.5,12.5-6.5c-2.4-0.8-3.2-1.3-5.2-1.8c9.5-2.9,13.2-11.9,19.7-18.1
				c2.6-2.3,2.2-10.3,3.9-10.3c0,0,2.2-5.7,2.2-5.9c2.6-5.2,5.6-8.8,10.2-10.9c4.5-2.1,10.6-10.9,11.7-16.3
				c-5.4,1.3-7.5,4.7-12.8,4.7c1.1-1.8,3.5-3.1,4.3-3.6c-1.1,0-3.2-0.8-3.2-0.8c0.4-2.6,1.5-4.1,3.2-4.1c0.7,0,1.1,0.8,1.7,0.8
				c0.7-1.5,1.3-2.6,1.9-3.4c1.1,1.5,1.3,2.8,0.7,4.6c3.4,0,4.3,2.6,7.1,2.6c1.1,0,3.5-6.2,3.9-6.5c-1.5-0.5-1.5-0.8-3.5-0.5
				c1.1-2.1,2.8-4.2,5-4.2c1.5,0,2.8,0.5,4.3-0.5c-1.1-1.3-0.8-1-1.7-2.1c2.2-2.6,6-2.3,9.3-3.1v3.1c2.8-0.8,3.5-6.7,8-7v4.4
				c2.8-6.2,6.5-4.7,10.4-7.3c-1.7-0.8-3.2-1.3-3.2-3.1c0-1.3,3.9-2.3,4.5-3.9c1.3,1.8,2.6,3.9,4.5,3.9c3.3,0,11.5-6.5,11.5-3.1
				c0,3.6-3.7,4.7-4.5,8.3c4.3,0.5,5.6-5.4,9.3-7.8c0.9,1.8,0.9,3.1,1.1,4.7c3-3.6,4.7-4.7,8.2-7.2c0.2,3.4-0.2,5.7,2.2,6
				c0.7-2.1,1.5-3.9,3.3-3.9c1.1,0,5.8,3.1,7.5,4.1c-2,6.2-3.7,4.1-8.6,6.2c2.2,2.1,3.7,2.3,3.7,3.9c1.9,0.3,6.5,1,7.1,1
				c5-0.8,5.2,0.3,5.8,0.3c7.1,0,30.5,14.1,41,18.1c36.8,14.1,12.7,32.1,0.7,28.3c-9-2.8-14.1-2.5-23.3-2.5
				c4.3,7.5,2.8,23.3,15.1,24.6v-10.4c25,12.8,22-11.9,28.1-14.3c6-2.3,17.3,3.9,17.3-5.2c0-4.6-3.8-5.5-3.2-7.8
				c9.3-34.4,14.1-11.7,10.8-1.3c-1,2.9,2.8,5.2,5.4,5.2c8,0,40.4-34.7,45.3-19.4c9.9,5.7,23.5-5.2,30.2-5.2
				c3.9,0,10.9,16.1,11.9-3.9c0.1-1.8-9.5-13.8,20.1-4.6c10.7,3.3,39.4,28.5,27.4,5.9c-5.2-6.2-9.7-14-9.7-25.9
				c0-9.8,17.7-28.1,27-25.9c18.5,4.4,6.5,8,6.5,16.8c0,8,2.4,47.1,11.5,47.1c7,0-6.3-19.2-1.8-25.1c6.6-8.5-2.6-16-4.3-23.3
				c5.6-3.6,10.1-7.2,11.2-15.5c3,4.6,1.9,28.3,14.7,7.8c15.1,0,16.8,3.6,21.6,0c-0.8-4.2-3.2-7.3-3.2-10.3
				c0-14.8,26.8-11.7,33.9-11.7c5,0,6-10.7,9.3-14.2c15.8-16.9,46.2-19.4,53.3-22c-2.4,12.2,25.5-1.3,29.8-5.2
				c5.8-5.4,10.4-15.5,21.6-15.5c9.3,0,14,7,16.2,14.2h22.7c53.6,15.4-11.7,36.5-18.4,46.6c0,0-6.3,17.4,22-10.4
				c4.7,9.3,42.1,14.5,49.2,16.8h23.8c0-8,3.1-10.9,8.7-10.3c44.4,4.4,27,17.6,27,19.4c0,7.2,3.9,20.7,12.9,20.7
				c3.5,0,4.7-8,5.4-11.7c7.1,0.5,8,6.5,14,6.5h34.5c1.3-10.1,3.7-20.7,20.5-20.7c16.9,0,31.1,3.9,44.3,9c6.3,2.3,6.5,8.5,10.8,12.9
				c4.8,4.9,16.8,1.3,24.8,1.3c14.7,0,22,4.7,24.8,18.1l49.7,1.3c4.1-0.3,20.7,25.1,14.1,0c-0.9-3.4,3.9-5.2,10.8-5.2
				c25.1,0,47.7,12.7,64.8,24.6C1947.8,203.5,1973.1,210.5,1980.9,222.9z M1026.8,574.9l-0.1-0.3c0,0.2,0.1,0.4,0.1,0.6
				C1026.8,575.1,1026.8,575,1026.8,574.9z M1109.6,497c-0.8,1.6,1.8,1.7,2.9,3.8c1.7,3.1-0.2,5.2,1.1,8.3c1.1,2.8,3.9,1.3,6.3,1.8
				c2,0.5,2.4,3.1,3.7,4.6c1.7,2.1,7.1,1.6,9.9,1.6c3.7,0,7.6-0.8,10.1-1.6v-4.6c-0.2-0.3-2.1-3.1-2.1-5.4c0-2.3,1.5-3.1,1.5-6
				c0-4.9-3-10.1-7.6-10.8c0.4-3.9,2.4-6.5,4.3-6.5h6.5c0-3.9-3.4-6-3.7-9.9c-1.5,0.3-5.6,2.9-7.3,3.9c0-10.1-5.8-13.5-9.9-22
				c-1.3-2.8-4.8-2.6-5-7.8c0.7,0.3,9.3-6.5,15.1-6.5c3.9,0,8.2,2.9,11.4-0.2c-4.3-7.8-6.3-14.5-17.9-14.5c-7.1,0-10.6,1.8-16.2,4.4
				c-0.6,0.3-7.1,4.7-8.2,3.9c-1.1,1.5-5.2,11.1-5.2,12.4c0,3.9,4.8,7.8,4.8,10.4c0,8.8,8.9,24.3,14.7,28.2c-3.4,2.1-3.4,8.3-6,12.4
				C1112.6,497,1110.4,495.5,1109.6,497z M1419.4,723.5c-0.3,0.8-0.6,1.6-0.9,2.5h0C1418.8,725.1,1419.1,724.3,1419.4,723.5z
				 M1422.8,713.8c-1.3,3.2-2,5.5-2.8,7.9C1420.8,719.3,1421.5,717,1422.8,713.8z M1424.5,711c0-0.8-0.5-3.3-1.2-6.1
				C1424,707.6,1424.5,710.1,1424.5,711c0,0.5-0.3,1-0.6,1.3C1424.2,711.9,1424.5,711.5,1424.5,711z M1912.4,160
				c2.4,0,19.4-1.3,19.4-4.7c0-3.9-8.2-6.5-11.4-6.5c-3.7,0-10.2,4.7-10.2,8.5C1910.2,158.7,1911.1,160,1912.4,160z M1851.3,176.1
				c1.1,0,2.2-1.3,2.2-2.6c0-1.6-1.3-2.1-1.5-3.1h-7.1C1846.1,173.5,1848.2,176.1,1851.3,176.1z M1645.7,94c1.6,0,1.9-1.9,2.1-3.4
				l0.1,0.1l-0.1-0.1c0-0.1,0-0.3,0.1-0.4h-0.4l-1.7-2.1c-0.9,1.3-1.7,2.3-1.7,3.9C1643.9,93.5,1644.6,94,1645.7,94z M1503.6,107
				c-2.1,0-4.7,1.3-4.7,3.9c0,2.3,2.4,3.1,4.7,3.1c1.7,0,3.1-0.7,4.5-1.6c0.3-0.4,0.5-0.9,0.5-1.6
				C1508.5,107.7,1506.6,107,1503.6,107z M1508.5,112.1c-0.1,0.1-0.3,0.2-0.5,0.3c-0.4,0.6-0.9,1.1-1.3,1.6L1508.5,112.1z
				 M1422.6,53.1c0,2.6,0.6,3.9,3.2,3.9l11.4-3.9c0,0,6.7-1.3,7.5-1.3c3.9,0.8,15.1-0.3,15.1-6.5c0-3.6-8.9-10.3-11.9-10.3
				c-1.5,0-2.4,2.1-3.9,2.6c1.8-2.1,0.6-2.1,0.6-5.7h-2.8c-8.6,0-10.6,9.6-15.5,15.5C1425.1,49,1422.6,49,1422.6,53.1z M1370.3,22.1
				c0,2.3,3,6.5,4.3,6.5c2.6,0,9.7-0.5,10.1-5.2c-1.5-0.5-7.6-3.9-8.6-3.9C1374.8,19.5,1370.3,19.5,1370.3,22.1z M1399.9,21.3
				c-6.9,2.6-9.1,5.4-16.2,8.3c3.2,2.1,8.9,9.3,11.4,9.3c7.8,0,14.7,4.7,24.2,4.7c2,0,4.3-1.6,4.3-3.9c0-1.8-1.7-2.6-3.2-3.1
				c1.3-0.5,4.3-0.8,4.3-3.3c0-2.6-0.4-3.1,1.7-5.2c-2.8-3.4-2.8-5.2-7.1-5.2h-4.3c-2.6,0-3.9-2.6-6.5-2.6c-1.7,0-2.4-0.8-4.5,0
				c1.7-1,4.1-3.1,4.1-4.7c0-1.3,0.2-2.1,0-5.2c0.9,0.3,0.4,0.8,2.6-0.2c-3.5-3.1-6.9-10.1-13-10.1c-10.4,0-13.6,12.2-22.7,15.3
				c5.6,3.4,9.7,5.4,15.8,5.4C1392.1,20.8,1397.7,21.3,1399.9,21.3z M1399.4,73.8c2.6,0,3.9-1.5,4.3-5.2h-3.2
				c-0.9,0.8-1.9,1.8-3.2,2.6C1397.5,72.5,1398.4,73.8,1399.4,73.8z M1373.5,3.4l-0.7-2h-8C1366.2,4.8,1370.3,4,1373.5,3.4z
				 M1471.2,55.2c1.5,0,2.6-2.1,2.8-3.9c-1.9,1.1-2.6-0.3-7.1,0.8C1467.5,53.4,1468.6,55.2,1471.2,55.2z M1120.2,15.6
				c-0.5,0.5-1,0.8-1.5,1v1L1120.2,15.6z M1097.5,10.4c1.9,0,3,1.6,5,2.3c-1.1,1-2.2,1.5-3.2,2.3c0.9,0.2,1.9,0.5,3.9,0.5
				c-1.7,0.5-2.8,1-4.5,2.1c0.6,2.3,2.8,3.1,6,3.1h-0.2c0.6,1,1.3,2.3,2.4,2.6c2,0.3,2.4-4.4,4.3-5.7c2.9-2,4.8,0.3,7.6-1v-1.5
				c0.7,0.2,1.5,0.2,2.2,0c2.6-2.3,5.4,0,5.8-4.7c-1.3-0.5-3.9-2.6-6.5-2.6c-3.2,0-4.7,3.4-8,3.4c-4.1,0-7.2-3.4-12.5-3.4
				c-4.5,0-14.7,0.8-16.6,4.9c1.7,0.3,3,1,4.8,1C1091,13.8,1095.1,10.4,1097.5,10.4z M1200.1,9.1c1.5,0,9.9-2.1,11.4-3.4l-3-8.3
				c-3.2,0-12.1,4.1-12.1,7.8C1196.4,7.8,1197.5,9.1,1200.1,9.1z M1188.2,15.6l-1.1-3.1c1.9,0,4.1,1,5.4-1.3c0-1,0.2-1.5,0-3.9
				c-1.9,0.5-5.6,0.3-6.9,0c0.4,0,1.7-0.8,2.2-2.1h-7.1c0,0.5-0.2,1.3,0,3.4c-2.6,1.1-4.3,3.1-4.3,7
				C1176.4,16.9,1186.9,16.4,1188.2,15.6z M1165.5,15.1c-2.2,0-10.8,1.5-10.8,5.2c0,1,1.1,1.8,2.1,1.8c1.9,0,2.8,0,3.2-2.6
				c1.3,0,3,2.6,4.3,2.6c3,0,2.8-3.9,7.1-3.9C1170.5,16.4,1168.4,15.1,1165.5,15.1z M1164.5,9.9c2.4,0,4.7,0.5,6.5-1
				c-4.7-2.3-6.3-2.9-12.3-3.9c2.2-2.6,6.5-4.2,9.9-6.7c0-1.3,1.1-2.6,2-3.3c0-0.8-0.2-3.1-0.7-3.1c-1.9,0-3.4,2.1-3.7,4.4
				c-6.3,0-6.5,5.2-13,5.2v3.4c2.1-1.6,1.3-0.5,3.7,0.5h-9.1c-1.1,1-1.5,1.6-2.8,2.9c0.4,0.3,9.3,4.9,10.8,4.9
				C1158.4,13,1161.9,9.9,1164.5,9.9z M882.6,38.4c0.7,0,1.1,0.8,1.7,1c-0.9,4.1,2.4,6.2,6.1,8.5c-0.7,0-1.1,0.3-1.7,0.5
				c1.1,2.6,3.4,4.1,6.9,4.1c4.5,0,4.5-5.7,6.5-7h1.7c0.9,0.8,2.8,2.3,3.2,2.3h5.6c-2.4,2.3-8.2,5.4-11,6.5
				c-1.1,0.3-6.1,0.3-6.1,2.6c0,6.2,5.6,3.4,8.2,3.4c1.5,0,8.4,0.3,9.7,1.3c-2.6,0.8-5,0-7.1,2.1c0,0-5-0.8-8-0.3
				c0,8.8,11.7,12.2,16.8,16.3c3-3.6,2.6-10.9,6.3-14.2c1.1-1,2.8-0.5,3.3-2.1c2.1-6.7,4.5-18.1,11.8-18.1c0,0,1.7,3.4,5.2,3.9
				c-1.1,0-1.9,0.2-3,0.5c0.9,2.1,2.8,6.7,4.3,7.2c-0.4,3.9-2.8,2.6-3.2,7.3c2.8,0.3,7.3,0,9.9,0.5c-0.6,1.3-0.6,2.6-0.2,4.7
				c5.4-2.1,7.8-6.5,13.6-8.8c-1.9-3.4-8.2-1.3-8.2-9.3h-6.9c0.7-1,0.4-2.6,0-3.9c-1.5,0.3-2.2,0.5-3.9,0c0.6,0,1.5,0,2.2-0.3
				c-2.2-3.1-13.6-10.9-17.3-10.9c-0.6,0-1.5-0.3-2.1-0.3c0.4-2.1,0.9-6.2-2.6-6.2c-1.7,0-2.2,2.3-3.9,3.4c0-1.8,0.6-3.4,0.6-5.2
				c0-2.6-5.8-5.2-8.6-5.2c-2.8,0-4.3,0-4.3,3.9c0,4.9,1.3,7.2,2.6,11.4c-5.4-2.4-3.9-11.4-9.7-11.4c-1.9,0-3.7,2.1-3.7,4.4
				c0,1.6,0.7,2.9,1.5,3.4c-1.5-1.8-3.6-1.8-5.8-3.9c0.6-1.3,1.5-2.1,2.6-3.6c-5-1-7.3-1-10.8-1c-2.1,0-6.7,4.9-7.5,6.2
				C878.7,34,881.1,38.4,882.6,38.4z M925.4,24.4c-0.4,6,3.9,2.8,7.6,2.8c0.4,0,9.3,0.8,10.1,0.8c-1.1,0.5-3.5,0.5-5.4,1.3
				c-0.4,0-2.8,0-4.3,0.3c0.2,2.1,0.9,3.4,2.8,4.2h12.3c1.5,3.1,3.7,4.7,7.6,4.7c6.3,0,17.1-9.1,22.3-13.2c-1.3-3.1-5.4-7-9.7-7
				h-7.1c-3.3,0-4.5,2.6-6.5,2.6c-0.5-1.8,0-3.1,0-6.5h-2.6c-1.1,1-2.8,6-5.4,6c-1.1,0-7.4-3.6-8.7-5.2h-6l1.1,2.6h-3.7V19
				c-1.3,0.8-3,0.3-4.3-0.8h-3.2C922.3,20.8,923.7,22.9,925.4,24.4z M884.5,52.6c-1.5-5.5-4.3-6.7-7.1-10.8
				C874.2,44.3,880.4,51.4,884.5,52.6z M877.9,41.5c-0.2,0.1-0.2,0.2-0.4,0.3l0.4,0.4V41.5z M877.2,41.5c0.1,0.1,0.2,0.2,0.3,0.4
				c0,0,0,0,0,0L877.2,41.5z M751.7,377.9c0,3.1,2.8,6,5.4,6c1.3,0,3-0.2,4.1-1c1.7-1.3,4.3-5.7,7.8-5.7c2.1,0,4.3,0.3,5.6-1.3
				c1.7-2.1,0.2-5.2,0.2-7.3v-8.8c0-2.1,3.9-1.8,3.9-3.9c0-4.4-2.4-10.6-7.4-10.6h-3.7c-2.2,0-6.5,3.1-6.5,4.9
				c0,1.3,0.4,1.8,1.3,3.4c-1.3,1.6-5,2.9-6.3,2.9c-0.6,0-2.4-0.5-2.4,2.9c0,2.6,2,4.1,4.1,5.4C757.1,370.9,751.7,371.4,751.7,377.9
				z M771.1,318.4c2.4,0,4.1-3.1,4.1-5.9c-1.7,0-5.4,1.3-5.4,2.8C769.9,316.3,770.5,318.4,771.1,318.4z M778.1,325.9v2.1
				c0,0.3-1.5,2.1-1.5,3.4c0,1.1,1.9,1.8,3.2,2.1v2.3c-0.6,0.5-0.9,1-0.9,1.8v4.2h1.7c-0.4-1-1.1-1.8,0-3.9c0.7,0.5,2,1.3,3.7,1.3
				c-0.7,2.1,0,2.6,0,4.9c0,2.1-2.2,3.4-2.2,5.4c0,2.1,1.5,2.1,3.4,2.1c1.7,0,2.8-1.3,5-1.3c0.6,0,1.3,0.2,1.9,0.2
				c-0.4,1-1.5,1.5-1.5,3.6c0,2.6,3,3.1,5.2,2.9v3.9c-1.1,2.6-5.8,4.9-9.7,4.9c0,2.9,1.7,4.2,1.7,7.5c0,3.9-6.1,4.1-6.1,8
				c0,0.5,0.6,1.3,1.1,1.3c1.1,0,0.9-1.3,2.2-1.3c2.4,0,3.2,3.1,6,3.1c1.5,0,3-1,3.9-2.6c0,0.5,0.4,1.3,0.4,1.8
				c0,3.6-4.3,2.3-7.3,3.4c-0.7,0.3-7.1,8.5-7.6,9.6v1.6h1.5c0.9-1,1.5-2.1,3-2.1h3c0-2.1,1.3-4.4,3.4-4.4c1.5,0,2.4,1.6,3.9,1.6
				c3.2,0,9.1-2.3,11.2-2.3h8.6c2.6,0,4.1-1.6,6-3.9v-1.8c-1.3,0-2.1-0.3-4.3-1c1.7-3.4,6.9-5.7,6.9-10.4c0-2.6-2-4.9-4.5-4.9
				c-1.7,0-1.3-0.3-2.8,1l1.1-1c-0.9,0.5-1.1,1.3-2.6,1.8v-1.8c0.7-0.3,1.1-1,1.1-1.8c0-2-2.4-3.4-2.4-5.4c0-6.2-5.6-8-9.1-12.2
				c-2.6-3.1-1.9-9.3-6.1-10.9c-1.7-0.5-2.8,0.5-5-0.3c0.2-1,0.9-1.8,1.8-2.1c0-5.5,6.7-8.5,5.8-15.8h-12.7
				c-0.4-0.8-0.6-1.3-0.6-2.1c0.6-3.6,5.4-3.1,5.4-6.7c0-0.5-1.3-2.3-2.2-2.3h-6.2c-1.3,0-3.5,2.1-3.5,3.3c0,1.3-0.9,2.3-0.9,4.4
				c-1.5,0-3,1-3,3.1c0,0.5,0.6,1.3,1.1,1.6c0,0.5-0.4,1.5-0.9,1.5c-0.4,0-1.5-0.8-1.5-2.3h-3.5
				C773.1,324.3,774.8,325.1,778.1,325.9z M785.4,355.1c-1.3,0.8-1.5,1.8-1.5,3.1h2.4c0-1.3,0.2-2.3,0.2-3.1H785.4z M1666.2,104.4
				c2.1,0,3.2-2.3,4.7-3.9c1.1,1.6,2,2.6,3.9,2.6c2.2,0,3.4-2.1,4.7-2.1c1.8,0,2.6-1.8,4.3-1.8c1.5,0,2.4,2.6,3.9,2.6
				c2.6,0,3.7-2.6,5.4-2.6h5.8c0-2.1,3-4.9,3.9-8.5c-4.5-1.5-17.3-7-21.2-7c-2.6,0-3.7,3.1-3.7,7c-5.9,0-6.3-8.3-13-8.3
				c-4.5,0-9.7,4.4-9.7,10.3C1655.4,98.9,1660.6,104.4,1666.2,104.4z M906,506.4c-3.3-0.8-4.6,1.7-7.4,1.7c-3,0-5-3.4-9.5-0.8v1.8
				c0.6,1.3,2.4,1,3,1.3c3.5,1.3,6.3,5.7,9.9,6.7c0,0.8,1.1,1.1,1.7,1.1c0.7,0,1.3-1.1,1.3-1.8c0-2.1-1.1-2.3-1.1-4.2
				c0-1,1.1-2.8,1.1-2.8L906,506.4z M869.4,477.6c0.6-1.6,1.3-7.2,1.9-10.3c-0.7-0.3-0.9-1.6-0.9-2.9c-1.1,0.3-1.9,2.6-3.4,2.6
				c-0.4,0-1.1,0.5-1.5,0.5C866.6,469.5,867.3,477,869.4,477.6z M866.2,488.2c0,1.8-1.1,3.1-1.3,5.2c0,2.1,0,5.4,2.2,5.4
				c1.7,0,5.6-3.6,5.6-7.3c0-4.2,0.5-6.5-1.3-10.6c-0.7,0-1.3-1.5-2.8-1.5c-1.9,0-2.2,2.6-4.5,3.4
				C864.3,484.8,866.2,486.1,866.2,488.2z M833.8,493.9c0-0.8-1.1-2.3-1.1-2.8c-1.3,0.2-2.1,1-3.4,1.8c0.2,0.2,1.9,2.3,2.8,2.3
				C832.7,495.1,833.8,494.6,833.8,493.9z M879.6,347.4c0-2.6-1.5-2.1-1.5-5.2H874v2.6c0,2.6,2.4,3.4,5,3.4v2.1
				C879.1,348.9,879.6,349.4,879.6,347.4z M882.2,350l-0.4-1.1c-0.2,0.3-0.9,0.8-1.1,1.3c0.2,0.3,1.5,1.6,3,1.6
				c4.8,0,3-9.1,6.7-10.4c-1.1-4.4-1.3-6.7-5.6-6.7c-1.5,0-4.1,6.7-4.1,7.8c0,1.5,2.4,3.6,4.5,4.1
				C885.2,347.9,883.7,349.7,882.2,350z M928.6,315.8c-3.9,0.3-5,4.9-5,6.5c0,1.3-0.7,2.3,0,3.4c1.5-2.3,3.2-3.6,3.2-6.5
				C926.9,317.9,928.2,316.8,928.6,315.8z M948.1,314.5c0.9,0,3.7-1.8,3.7-2.6v-3.1c0.4-0.3,1.5-2.1,1.7-3.4c-0.8-0.5-1.3-1-2.4-2.6
				c0,0-1.9,1.3-1.9,2.6c0,1.3,0.8,2.1,1.5,3.1c-1.7,0.3-3,1.8-4.7,2.1C945.9,312.2,946.1,314.5,948.1,314.5z M972.9,531.4
				c-3.7-1.3-8.9-2.6-13.6-1.5c2.4,1.5,6.5,2.1,8.2,2.1C969,531.9,970.1,533.2,972.9,531.4z M1023.9,526.7
				c-3.7,0.8-9.3,3.4-12.5,5.2c0,0.5,0.6,1.3,1.1,1.3c0,0.8,0.9,1.3,1.5,1.3c1.9,0,6-1.3,6.7-2.8c0.2-0.8-0.2-2.3,0.4-2.6
				C1022.3,528.3,1023.4,529.3,1023.9,526.7z M1141.8,712.3c1.7,0,3.5-2.1,3.9-3.1c-2.8,0-4.3,0.5-6.3,1.3
				C1139.6,711.7,1141.1,712.3,1141.8,712.3z M1109,181.2c-0.4,0-2.8,4.9-2.8,5.9c0,2.6,1.3,3.1,3.9,3.1c3.7,0,6.2-2.6,9.1-4.4v-3.4
				c-3-0.5-4.5-3.9-7.6-3.9C1110.5,178.6,1110,181.2,1109,181.2z M1170.9,170.4c0,3.1,4.8,6.5,7.6,6.5c0,0,2.8,0.5,2.8-1.3
				C1181.3,170.4,1170.9,165.2,1170.9,170.4z M1250.4,128.7c-2.1-2.1-2.8-4.9-5.4-4.9c-1.9,0-3.2,2.9-3.2,5.2c0,0.8-0.6,2.6,0,2.6
				C1244.4,131.5,1249.3,129.7,1250.4,128.7z M1688.2,126.4h6.5c-0.2-5.9-4.5-10.3-10.2-10.3c-5,0-7.8,3.7-10.4,7.8l1.1-1.3
				C1679.4,124.3,1684.3,123.8,1688.2,126.4z M1731,103.6c3.5,0,9.7-1,9.7-3.9c0-1.3-0.9-2.6-2.2-2.6c-0.8,0-23.5-3.4-25.5-5.2
				l2.2,2.1C1715.2,100.5,1725.4,103.6,1731,103.6z M1679.6,112.6c0-3.6-5.8-4.1-5.8,0c0,2.4,0.2,3.4,2.6,3.4
				C1677.9,116,1679.6,114.7,1679.6,112.6z M729.5,236.6l0.4-0.5c0-7.2-8-5.4-8-12.9c0-0.8,0.7-1.8,1.3-2.3c-1.9,0-3.2,1.3-5.2,1.3
				c-2.2,0-3.9-0.3-3.9-3.4c-0.9,0.8-0.9,0.5-2.4,0c-0.4,1-0.9,1.8-0.9,3.9c-1.9-2.3-4.5,0.8-7.3,0.8c-2,0-3.7-0.8-6.9-0.8
				c0,0.8-0.2,1.8,0,2.6c-0.9-0.5-1.3-1.3-3-1.8l-5.2,1.6c-1.3,0-1.9-1.3-2.8-2.3c-0.6,1-0.4,1.6,0,3.4c-1.1,0.3-2.4,1.6-3.9,1.6
				c-1.5,0-3.5-3.4-3.2-5.2c-0.2-1.5-1.1-2.3-1.3-3.9h-1.7c-1.7,0-2.2,2.9-3.9,2.9v2.1c-1.3-0.8-2.4-1.3-4.3-0.5
				c0.4,2.8,8.4,5.7,11,5.7c0,0.8,0.2,1.5,0.9,2.1c-2.4,1-8,2.3-11.2,2.3c2.2,2.6,5.8,0,9.3,1c-0.4,2.8-1.1,4.4-1.1,7.8
				c-0.6,0-1.3,0.8-1.9,1.3c4.8,0,6.5,3.6,9.5,4.7c5.8,2.3,11.5,4.7,19.4,4.7c7.4,0,11.5-4.4,16.6-6.5
				C722.6,244.9,727.8,240.2,729.5,236.6z M356.9,653.5c-1.5-0.8-2.6-4.4-5-5.2l-3.2-0.2c-0.2-0.5,0-1.3,0-1.8
				c-5,0-10.4-2.8-13.4-6.5c-0.4-0.5-2.2-3.1-3.7-3.1c-7.1,0-11.7-6.5-21.2-6.5c-9.7,0-14.3,4.4-17.7,11.4h1.9
				c2.2-2.6,8-6.2,12.1-6.2c1.1,0,2.2-0.3,3,0.8c-0.6,0.8-0.9,1.8,0.4,2.9h6.3c3,0,4.5,3.9,7.6,3.9c1.7,0,2.8-0.8,4.5,0.3
				c0.9,0.5,0.6,2.3,2.4,2.3c0.6,3.9,4.1,3.6,7.3,5.5c-0.2,1.3-1.1,2.3-2.2,2.3v1.6c4.1,0,7.6,1.8,12.5,1.8
				C351.3,656.6,355.4,656.6,356.9,653.5z M303.6,640.1v1.8c-0.6,0-1.9,0.5-1.9,2.3c0,0.5,2.8,0,3,0c0.4-1.3,0.2-2.6,0-3.9l-0.6-0.2
				H303.6z M333.8,667.8c0,2.1,1.7,3.9,3.4,3.9c2.6,0,4.5-1,7.1-1.5c-0.2-1-0.6-1.8-1.9-2.3l0.4,0.5c-1.3-0.5-4.3-2.1-6.9-2.1
				C335.1,666.2,333.8,666.7,333.8,667.8z M401.8,667.3c0,2.6,2.8,2.9,5.4,2.9c1.3,0,2.8,0,3.5-1.6c-0.7-1.6-5.8-2.9-6.5-2.9
				C403.6,665.7,401.8,665.9,401.8,667.3z M357.3,666.2c0,1.6,1.3,3.9,2.6,4.1c0-0.8,0.2-1.3,0.2-2.1c1.1,0.8,1.1,0,2.6,0
				c2.6,0,7.8-0.8,9.7,0.8c1.1,0.8,0.6,3.3,2.6,3.3c2.4,0,2.2-4.6,5-4.6c1.1,0,0.9,1.3,2.2,1.3c1.5,0,2.4-1.1,3.9-2.1h8
				c-1.5-2.6-3.7-3.6-5.8-5.7l1.1,1.1c-3.9-2.3-5.2-6.7-12.1-6.7c-2.4,0-3.7,1-6.5,1c-1.9,0-3.2-1.8-5.2-1.8c-0.6,0-1.7,1-1.7,1.8
				c0,1.5,1.5,2.9,2.8,2.9c0,2,0.2,3.9,1.5,5.4c-2.6,1.6-4.7,0.2-9.7,0.2C358.2,665.4,357.8,666.2,357.3,666.2z M435.3,730.6
				c0,0.8,1.3,0,2,0c1.3,0,2.2-2.3,2.6-3.4v-1.8h-1.9C436.6,725.5,435.3,728.1,435.3,730.6z M506.8,803.6c-2.6,0-4.3,2.6-4.3,6.5
				c0,2.3,5.6,7,8.9,7c2.6,0,5.8-6,5.8-8.3c0-0.5-0.7-2.3-1.5-2.3c-1.1,0-3,2.8-3.5-0.5c-1.7,0-3.2-1.3-4.5-2.3
				C507.7,803.9,507,803.6,506.8,803.6z M361,1151.4h1.9v-7.8c0.2-0.8,0.9-1.3,0.9-2.9c0-2-0.7-4.1-2.6-4.1c-1.3,0-2.6,7.8-2.6,7.8
				v3.4C358.6,1148.9,359.7,1151.2,361,1151.4z M56.5,409L56.5,409L56.5,409L56.5,409z M601.4,854.6c0,19.1-8.8,24.2-14.6,34.8
				c-1.3,2.3-2.2,3-3.5,5.3c-2.2,3.9-4.5,4.4-6.7,7c-3.2,3.9,0,12.2,0,18.4c0,4.6-1.5,9-1.5,12.3c0,1.3-0.9,2.3-1.1,3.1
				c-0.9,1.3-2.8,3.9-2.8,6c0,2.6-0.7,7.8-1.1,8.8c-3.2,6-4.3,8.6-7.6,13.7c-0.9,1.5-0.7,4.7-1.1,5.7c-1.3,3.1-5.8,6.8-9.5,6.8
				c-4.1,0-7.4-0.3-10.6,1.5c-1.3,0.8-1.5,2.1-2.2,2.9c-5.2,6.2-10.6,2.6-14.5,9.8c-1.7,3.4-4.5,3.4-6.3,5.5
				c-2.8,3.4-2.4,7-2.4,11.9v12.1c-4.3,2.6-6.5,7-8.6,12.4v-0.3c-1.5,3.4-1.3,5.2-3,8.5c-3.9,7-8.2,7.8-11.9,14.5
				c-4.3,7.8-6,20.7-15.9,20.7c-3.5,0-8.3-2.8-9.8-2.8c-3,0-5.8-3.1-9.1-3.1c-0.7,0-1.7,0.5-1.7,1.3c0,2.3,3.2,3.6,3.9,4.4
				c1.7,2.1,1.7,4.9,2.6,8c0.6,2.9,4.1,2.9,4.1,5.7c0,3.2,0,4.8-1.1,6.9c-2,3.6-3.5,5.3-5.6,7.9c-3.7,4.4-8.2,3.1-13.4,5.2
				c-3.5,1.2-10.6-1.6-12.5,0.8c-2.8,3.3-0.6,11.1-2.2,14.7v2.6c0,1.3-3.5,3.1-5,3.1c-4.5,0-5.4-3.6-9.7-3.6c-1.5,0-2.2,1.8-2.2,3.1
				c0,3.6,2.6,10.4,4.5,10.4c1.1,0,2.4-1.6,3-1.8c0.9,1,1.9,1.3,1.9,2.6c0,1.6-1.7,3.4-2.2,3.4c-2.6,0-3.5-2.3-5.6-2.3
				c0,2.9,1.3,3.4,2.4,3.9c-3.9,4.6-3.9,9.3-5.2,15.8c-0.4,2.9-4.3,3.1-5.8,3.4c-3.5,1-6.5,4.6-6.5,9.1c0,10.1,9.7,6.5,9.7,14.5
				c0,7.2-5.4,8-8.4,11.6c-1.7,2.1-1.1,5.4-2.4,8.8c-1.5,3.6-5,2.1-6.9,4.4c-2.6,3.1-3.7,6.7-3.7,11.6c0,2.6,1.9,5.7,3.2,6
				c3.9,2.6,3.7,14.5,6.5,17.9c4.8,5.7,10.6,8.1,16.4,11.4c-0.9,1.5-2.2,0.8-3.5,0.8c-3.2,0-8.6,4.9-10.6,4.9h-2.4
				c-0.6,0-1.5,1.1-2.2,1.1h-6c-5,0-3.2-7-6.7-8.3c-3.2-1.3-8-1.3-8-5.9h-4.1c-1.7,0-2.2-2.1-2.4-3.4c-6.1,0-7.8-3.6-10.6-7
				c-0.6-0.8-1.9-2.1-1.9-2.6c0-2.3,3.9-2.1,4.1-4.4c-0.6-0.3-1.1-0.8-1.7-1.3c0.6-1.3,1.5-2.8,1.5-4.4c0-6.2-5.8-5.2-5.8-10.6v-3.6
				c0-5.7-3.2-14.8-3.2-19.2c0-4.6,5-6.5,5-10.6c0-2-2.6-6.2-3-9v-2.6h0.2c0-1.6,0.9-2.8,1.9-2.8c3.9,0,2.4,4.7,5.6,4.7l7.1-38.3
				v-3.9c-0.6,0-1.3-0.2-1.9,0c-1.5,0.8-1.7,2.9-3.2,2.9c-1.7,0-3-5.9-3-8.8c0-4.9,1.5-7,2.2-11.6c1.5,0,2.2-0.8,2.2-1.5
				c0-1.6-1.3-2.8-1.3-2.8c-0.9,0-1.1-7.2-1.1-9.1c0-6,3-11.9,5-15.5c0.9-1.8,1.3-5.5,2.4-7.2c0.6-1,1.7-0.8,1.9-1.8
				c1.5-6,1.5-10.3,2.8-16.6l-0.2-19.4c-1.3-4.7,1.1-8.3,1.1-12.4c0-9.8,5-16.3,5-25.1v-2.3c0-1.8,1.1-6.5,1.5-9.1v-11.3
				c0-3.6,1.9-10.6,1.9-14.8c0-2.6-1.1-17.9-1.7-20.7c-2-6.2-5.4-10.1-9.3-12.4c-3.2-1.8-5.6-1.3-8-4.1c-2.6-3.1-3.9-4.1-6.9-5.2
				c-6.1-2.3-9.1-6-13-10.6c-1.7-2-0.9-4.9-0.9-8c0-4.1-3.2-6.2-4.1-9.8c-1.7-6.2-6.1-10.9-7.6-16.6c-1.5-5.9-2.8-9.3-4.7-14.2
				c-0.6-1.5-2.1-1.1-2.8-1.8c-1.5-1.8-1.9-5.4-2.6-7.3c-0.7-1.5-2.4-1-3.2-2c-2.4-2.8-5.4-8-5.4-12.7c0-3.1,1.5-6.8,2.4-7.8
				c1.9-3.9,5.8-4.9,6.7-9.1c-1.9-1.5-1.7-0.3-3.2-0.3c-3,0-3.5-5.2-3.5-8.8c0-5.9,5.5-4.9,4.5-16.3c5.8,0,7.4-7,9.1-11.1
				c2.4-5.7,8-3.9,9.3-10.9c-1.1-0.5-2.2-1.8-2.2-2.6l0.9-2.1v-1.3c0-2-1.3-3.6-1.3-5.7c0-3.1,1.1-4.1,1.1-6.7
				c0-5.5-3.9-4.7-3.9-9.3c0-0.6,0.2-1.1,0.3-1.6c-0.2,0.2-0.4,0.3-0.5,0.3c-0.4-0.5-2.4-1.3-2.4-2c0-1,0.9-1.6,1.3-2.6
				c-2.4-1.3-3-4.7-5.4-4.7c-1.5,0-7.6,5.2-7.6,6.7c0,1,1.3,2.1,1.7,2.3c-0.4,2.6-1.5,3.9-3.3,3.9c-3.4,0-5.6-4.9-7.3-7
				c-1.5-1.8-5-0.3-6.5-0.3c-0.4,0-1.1-1-1.1-1.5c-3-0.8-3-3.4-3.9-5.5c-0.7-1.5-8-7-8.2-7c-0.4,0.8-0.4,1.8,0,2.3h-2.2
				c-3.3-2.6-1.1-6.2-2.2-10.1c-0.6-2.6-1.7-3.1-2.8-4.4c-3.5-4.2-7.1-6.5-8.4-12.7h-1.3c-1.5,0-2.6,1.3-4.1,1.3
				c-4.1,0-6.3-2.9-9.1-4.4c-4.1-2.3-7.1-1-11.4-3.6c-6.7-3.9-7.5-9.9-13.4-13.2h-1.3c-1.7-1.3-3-2.1-4.8-2.1
				c-3.9,0-4.5,5.2-8.2,5.2c-1.7,0-3.5-1.8-4.3-2.3c-1.7-1-3.2-0.5-5-0.5c-2.6,0-9.9-6.2-12.1-7.5c-2.4-1.3-3.9,0.3-6.3-0.5
				c-3-1-3.7-4.1-6.7-5.9c-2.8-1.5-4.3-1-7.1-2.6c-1.3-0.8-1.7-1-2.4-1.8c-2.6-3.1-9.3-4.9-9.9-8.3c-1.9,0-3.2-2.9-3.2-5.2
				c0-2.8,2.2-4.4,2.2-7.2c0-3.4-1.7-4.2-2.2-6c-2.6-9.3-9.9-16.8-14.7-22.5c-2.2-2.6-5.6-3.6-7.8-6.2c-1.7-2.1-0.2-4.6-1.3-7.5
				c-1.9-4.6-8.6-5.2-8.6-11.4c-1.9-0.5-1.7-0.8-2.4,0c-2.8-3.4-5-6.2-7.4-9c-1.9-2.3-1.3-6.7-3.2-9.1c-1.9-2.3-1.5-8-3.2-9.1
				c-3.7-2.1-7.1-1.8-9.9-5.2c-0.6,1-0.4,2.6-0.4,3.4c0,5.4,2.1,8.8,3.9,13.2c1.5,3.9,4.3,3.9,6.5,6.5c3,3.6,3.5,6.2,4.5,10.6
				c1.5,6,5.8,8.8,7.3,14.2c1.7,6.2,3,12.9,6.9,16.1c1.7-2.1,4.3,2.3,4.3,4.4c0,1.3-0.9,3.9-1.5,3.9c-0.4,0-3.3-4.5-3.5-5.5
				c-3.9,0-6-6.1-8.3-7.9c-1.3-1-1.5-1-2.2-2.3v-6.7c-2.4-2.9-4.1-5.7-6.3-8.3c-3-3.6-7.8-2.9-9.9-6.7c1.1,0,6.2,0.9,4.3-2.3
				c-3.2-5.5-6.7-11-10.5-13.9c-2.6-2-2.4-9.2-3.7-12.3c-2-4.6-3.9-6.2-5.4-12.2v-1.8h0.4c-3.2-7.8-14.3-13.2-22-16.8
				c-1.7-0.8-1.1-3.6-1.7-5.7c-3-9.1-9.1-12.2-8-22.8c-4.5-0.8-9.3-12.3-13-19.9c-1.1-2.2,0.9-3.9,2.2-4.9
				c-2.4-5.7-0.1-15.2-2.2-21.7c-2-6.3,3.7-21,3.7-29c0-5.7-5.4-8-5.4-13.7c0-1.6,2.4-1.8,3.2-1.8c3.2,0,5.2,2.1,6.3,4.4
				c1.1-1.6,3-4.7,3-7c0-2.6-1.9-3.4-2.8-5.9c0,0,0,0,0,0h0c-0.9-0.5-2-1.1-2.4-1.6c-2.1-2.6-7.5-3.1-8.2-5.7
				c-1.7-6.7-9.3-3.3-10.4-8.5c-7.3,0-7.8-7-9.3-12.9c-0.2-0.8-5.8-4.9-5.8-4.9c-2.6-2.1-0.2-5.4-2.2-7.8c-1.3-1.5-3-1.5-4.7-2
				c-3-1.1-2.2-8-2.2-11.4c0-1.5-1.3-2.3-1.3-3.6c0-1.8,3-2.3,3-5.2c0-5-3.1-6.5-5.1-8.5c2,2,5.1,3.5,5.1,8.5c0,2.8-3,3.4-3,5.2
				c-1.1,0-1.1,0.3-2.2,0.3c-3.7,0-9.1-4.9-9.1-7.8v-3.9c0-3.9-2.6-3.9-6.5-3.9c-3,0-3.9-2.3-3.9-3.9c0-2.1,3.2-2.3,3.2-4.4v-3.4
				c-4.1,0.3-3,3.4-5.8,3.4c-0.9,0-3.2-2.3-3.2-3.9c0-3.1,1.5-4.1,2.2-5.4c-1.1-1.3-3-3.6-3.9-1.8c-3.3,0-4.8-1.8-6.5-3.8
				c-0.7,2.1-1.5,4.6-3.2,4.6c-4.5,0-7.6-7.5-10.2-9.8c-5.6-4.9-12.9-4.7-19.4-9.1h-11.9c-7.1-2.8-16.6-3.9-20.3-12.9
				c-2.6,1.3-6.9,2.6-8.9,3.9c0.6,1.8,1.1,2.6,2.2,3.6c-2.8,5.1-16.6,14.5-21.6,14.5c-0.9,0-2.2-0.8-2.2-1.8c0-1.5,1.3-1.8,1.7-2.1
				c-1.1-1.8-0.2-1.8-0.2-3.1c0-5.7,3.2-10.1,9.5-12.4c0-0.8,0.2-1.8,0.2-2.6h-2.6c-5.2,0-19.4,14.2-19.4,22.8v3.9
				c0,6-4.8,8-9.7,10.3c-2.8,1.3-3.7,3.9-5.4,6.5c-3.3,4.9-10.6,7.5-14,11.7c-3.2,3.9-11,6.7-17.3,7.8c-7.8,1.5-12.1,12.4-21.2,9.3
				c2.6-4.9,6.7-2.8,10.4-5.4c2.6-1.8,4.6-7,6.9-8.5c3.7-2.6,7.8,0,10.4-3.9c3.7-5.7,12.1-10.1,17.3-14.2c5-3.9,5-11.6,10.1-15.5
				h-3.3c-3.2,1.5-4.7,3.3-8,3.3c-2.6,0-3.7-1.3-5.8-2.1c-0.7,2.1-1.3,2.8-1.5,4.7c-5.2-2.3-6.7-3.9-10.4-7.3
				c-0.4,1.5-0.2,2.8-0.2,3.9h-2.6c-1.3,0-2.4,2.1-3.3,2.1c-1.3,0-2.1-4.4-2.1-6.5v-5.2c0-0.8,0.2-3.9-1.7-3.9
				c-1.7,0-3.5,4.4-4.3,4.4c-2.8,0-13-9.6-14.5-11.9c1.1,0,2.2-0.8,3.2-0.8c-1.7-5.7-8.6-7-8.6-11.1c0-7.7,11.7-14.2,16.2-14.2
				c1.9,0,16.6-7,16.6-10.4c0-1.8-3.5-5.4-3.7-6.2c2.2-1.6,1.7-1.3,3.2-0.3v-3.9c-2-0.3-2,0-3.2,0c-3.5,0-4.8,4.4-9.3,4.4
				c-4.3,0-5.9-2.6-9.1-1.8h-11.4c-0.2-3.9-2.8-4.9-2.8-7.2c0-0.8,0.4-1.8,0.7-2.6c-3.5,0-5.4-1.6-6.5-4.1
				c5.4-3.9,14.3-7.2,19.4-11.4h3.9c0,8.3,3.5,5.9,8,5.9c3,0,3.5,0.8,6,0c-2.1-8.3-6.7-8.8-13-12.4c-1.7-1-4.3-8.8-6.5-10.3
				c-2.6-1.8-11.4-3.9-11.4-5.7c0,0,3-6.5,3.2-7.2h11.9c6.5-10.3,16.2-20.2,27.6-24.6c3-1,5,0.8,8-0.5c3.5-1.6,5.6-7.2,9.3-7.2
				c2.8,0,3.9,2.8,6.7,3.9c-1.1,1.5-1.3,2.1-1.9,3.3c2.2,0.5,4.3-1.3,5.4-3.3c2.4,1,3,1.8,5,2.6h10.8c2.6,2.1,3.5,3.4,6.5,5.2h16.6
				c4.3,5.2,17.7,6.5,24.4,6.5c3.9,0,6.3-1.8,10.2-1.8c6.3,0,8.2,3.1,13.6,5.2l0-0.3c2.1,0.5,1.1,1.1,2.6,0c0,0.8,2.7,3.1,3,3.4
				c8.9,6.5,18.6,7.8,24,7.8c1.9,0-7.8-6.1,6.3-6.7c2-0.1,1.1-8.1,6.7-1.8c1.9,2.1,7.5-2.9,9.9-3.4c6-2.8,8.4-3.4,15.1-5.2
				c0.6,2.1,2.2,3.6,3.9,3.6c4.5,0,3-7.5,7.3-7.5c1.3,0,7.1,11.6,11.2,11.6c4.3,0,4.3-5.7,8.4-6.7c0.4,2.1,2.8,7,5.2,7
				c3.4,0,5.2-3.4,9.3-3.4c13.2,0,19.7,12.9,32.8,11.7c12.4-1.2,11.3-2.8,17.3,7.2c-1.3,1.6-7.9,0.6-7.9,2.9c0,0.8,0,4.5,8.6,4.1
				c4.8-0.2,7.6-2.3,11.9-2.3h13.8l3.3,1.8c3.7,2,4.5,8.5,8.9,8.5c1.1,0-1.3-6-1.3-7.7c0-8.8,11-1.8,10.2-10.4
				c-2.6,2-8.3,4.1-11.7,4.1c-1.7,0-2.7-1-2.7-2.8c0-5.7,13-6,16.9-7.2c2.8,10.6,16.4,15.5,28.1,15.5c12.3,0,14.7-0.6,18.4,0
				c0-5.5,1.5-8.3,5.4-8.3c3.2,0,9.1,1.8,9.7,3.1c1.7,2.8-3.8,11.3,3.2,9c0-12.7,14.3-7.5,11.5-18.1c-1.7,1-3,1.6-4.6,2.6
				c0,0,1.7-6.2,1.7-7.8c0-8.8-14.7-3.6-14.7-12.2c0-3.6,2.8-3.4,2.8-6c0-2.6-1.7-3.9-1.7-6.5c0-3.9,3.4-3.1,6-3.9
				c-0.2-2.6-1.9-5.8,2.2-5.7c8.4,0.3,13.2,5.4,13.4,13.5c0.1,3.8,6.5,3.6,6.5,8.6c0,3.4-3.9,5.2-5.4,6.2c2.6,3.9,7.4,1.3,10.8,3.9
				c-1.1,1-1.5,1.8-2.2,3.1c4.5,2.6,5,5.7,5,10.1c6.7,0,2.4-11.1,8.6-11.1c1.7,0,8,7.3,8,9.1c0,3.9-3.7,3.1-3.7,6.4
				c0,2.8,6.4,14.9,11.3,7.5c3.1-4.8,2.6-8.2,4.3-12.7c1.1-2.6,6.1-2.6,6.1-5.2c0-2.3-3.2-3.6-3.2-7c0-3.1,2.8-5.2,5.4-5.2
				c1.9,0,3.5,1.6,5.4,1.8c8.9,0,7.1,6.5,14.1,6.5c0,4.4,0.9,4.1,0,6.4c-6.8,3.9-3.9,8.1-3.9,9.8c0,1.6,5,4.2,5,6.5
				c0,3.4-11.1,14.8-12.5,12.2c-2.7-4.8-3.7-0.3-2.6,1.3c-3.9,0-5.2,2.1-7.1,2.1c-3,0-4.8-5.2-9.5-5.2c-1.7,0,1.5,4.7,1.5,5.7
				c0,3.1-6.3,8.5-9.7,8.5c-4.1,0-6.9-3.9-9.7-5.9h-3.9c3.2,7.8,10.6,6.5,17.9,8.5v3.9c-3.4,3.1-6.3,9.6-11.4,9.6h-4.8
				c-2.6,0,0.2,7.2-4.4,5.5c-17.5-6.5-11-1.2-12.9-1.9c3,2.1,11.3,2.4,11.3,6.3c0,6.2-6.5,3.6-10.1,5.2c-1.7,0.8-5.4,10.9-7.1,12.9
				c-5,6-7.6,12.2-7.6,22.5c0,7.5,0.9,8.5,0,11.7c2.2-0.5,3.2-2.6,5.4-2.6c4.8,0,8.2,14.5,8.2,20.7c3.3,0,4.8-3.9,8-3.9
				c3,0,8,4.4,9.7,5.2c9.5,4.4,18.6,8.6,26.6,15.5h14c6,4.6,4.8,11.1,4.8,19.4c0,7.5,7.6,15.6,12.9,20.7c2,2,3.9-3.1,6.5-3.1
				c0.2-2.8,3-4.6,3.9-6.2c-3-4.4-0.1-18.5-7.6-23c4.3-1,17.3-12.7,17.3-17.3c0-17.1-7.5-20.4-12.5-30.5c2.8-1.3,8.9-3.2,8.2-10.9
				c-0.4-3.9-7.1-9.6-4.3-11.7c7-5.3-0.6-9-0.6-11.6c0-4.6,3.2-6.5,6.5-6.5c6.1,0,9.9,4.4,16.2,4.4c3.2,0,3.2-2.6,6-2.6
				c6,0,7.3,8.8,13.4,9.8c0,9.6,11.7,4.4,12.5,11.7c0.6,5.4,2.1,18.1,5.8,18.1c2.6,0,3.3,5.7,7.1,5.7c5.4,0,12.3-9.6,12.3-13.4
				c0-3.6,3.5-5.9,5-7.2c0.9,1.1,3,3.4,3.7,3.4c0.6,7,9.8,8.4,7.6,14.2c-1.8,4.7,5.2,10.1,7.1,10.9c-0.4,2.6,1.5,4.7,1.5,7.2
				c0,3.1-2.2,3.9-3.2,4.7c2.8,2.6,5.6,6.2,10.4,6.2v0.8c0,8.8,11,11.6,16.2,10.9c0.2,1.3,2.1,1.7,1.8,2.9
				c-1.3,4.9-13.3,6.9-17.6,9.7c0.2,0.5,1.5,1,2.2,1c5.2,0,15.5-4.4,20.5-7.8v3.1c2.5,1.3,0,3.9,1.7,3.9c2,3.9,3.7,6.5,3.7,12.4
				c0,8.3-17.4,9.4-20.5,14.2c-6.4,9.9-12.3,5.7-23.1,5.7c-8.2,0-13-1.8-21.2,1.3c-4.5,1.8-2.4,4.2-5.4,7.7
				c-4.8,5.7-9.3,3.4-12.1,10.4c6.5-1,10.8-9,20.3-9c4.5,0,11.2-1,11.2,3.9c0,5.2-7.8,6.5-9.1,8.5c1.9,0,4.3,0.8,5.4,0.8
				c-0.4,2.6-2.2,4.7-2.2,6.2c0,6.5,9.9,13.7,16.2,13.7c1.3,0,6.9,0.2,6.9,3.1c0,2.1-14.8,8.9-15.9,9.1c-4.3,1.6-8.3,8.5-10.1,8.5
				c-1.3,0-4.3-4.2-4.3-6.5c0-5.7,7.8-9.8,12.7-10.3c-3.5,0-3.2-0.3-3.2-3.9c-3.3,0.2-3.3,3.6-5.2,5.2c-1.9,1.5-7.3,0.5-8.6,0.5
				c-0.6,0-1.7,0.3-2.2,0v0.8l0.1,0.6c0.3,0.7,0.6,1.4,1,2c-1.5,2.8-3.9,4.4-6.9,4.4c-2.6,0-2.8-1.3-5,0c-3.5,4.2-10.8,7-10.8,16.8
				c0,0.8,0.2,2.1,0.9,2.3c0,1.3,0.9,4.6,2.2,4.6c0.4,0,2.4-1.8,2.4-1.8v1.8c-2.6,0.8-6.3,1.8-7.1,0.8c-4.3,3.9-11.7,2.3-16,5.7h2.2
				c1.9,0,3.9-1.3,5.4,0c-3,1.3-5.2,1.3-8.2,1.3c-0.6,0-1.3-0.3-1.9-0.3c-0.7,0.3-1.3,1-1.3,1.8c0,1.3,1.9,3.1,1.9,3.1
				c-0.4,2.1-4.5,11.1-6.1,11.1c-0.6,0-1.1-1.6-1.5-2.1l-1.1,1.3c0.4,2.1,2,2.9,2,4.9c0,1.5-4.3,10.6-5,10.6c-0.4,0-0.9-1-0.9-1.6
				v-2.8c0-1.8-1.9-6-2.4-8.6c-0.4,1.3-0.2,3.4-0.2,3.4c0,1.8,1.1,6.5,1.1,9.1c0,2.6-1.3,2.3,0,3.9h1.5v2.6c0,2.1-1.8,3.2-2.9,3.2
				c0.9,1.8,1.9,2,3,2.2c-0.4,2.8-1.4,2.6-3.4,2.6v2.1l2.5,1.8c-0.6,1-1.3,2.6-2.5,2.8c-2.5,0.6-3.7,2.6-5.4,3.1
				c-2.6,1-2.4,1.8-3.7,3.4l0.6,0.5c-10.1,6.8-23.1,11.7-23.1,30.6c0,8.5,6,11.1,6,19.4v1.3c0.7,3.1,2.6,5.7,2.6,10.4
				c0,5.4-1.1,10.3-4.7,10.3c-3.2,0-3-4.1-4.3-6.5c-2.6-4.1-4.8-5.4-6.5-9.6c-3.5-8.3-0.9-24.1-10.4-24.1c-1.9,0-2.8,3.4-4.7,3.4
				c-3.9,0-6.3-6-11.5-6c-3,0-3.7,2.1-5.4,2.1c-0.7,0-1.5-1.3-1.5-2.1c-3.5,1.1-8,0.5-11.7,2.1c2.1,0.8,1.7,0.8,3,0
				c-0.2,3.9-2.2,6.2,0.4,8.3c-6.1,3.6-11.2-5.2-15.6-5.2c-1.3,0-1.9,2.1-3.2,2.1c-2.4,0-3.7-2.6-6-2.6c-6.3,0-9.3,6.5-11.9,9.6
				c-1.7,2.1-3.7,0.2-5.8,1.3c-4.8,2-7.6,9-7.6,16.8c0,0.8,1.1,1.8,1.1,2.6c-0.2,0-0.4-0.1-0.6-0.1l0.1,0.6c0.4,1.6,0.9,2.6,0.9,4.1
				c0,4.7-1.5,6.5-2.2,10.4v14.5c-0.4,2.1,1.3,4.2,1.7,5.2c0.9,2.3-0.2,3.9,0.6,6.2c0.9,2.1,3.7,5.7,5.2,7.5
				c3.9,4.7,3.9,9.1,9.5,11.1c1.9,0.8,1.9,3.1,3.7,3.1c4.1,0,7.6-3.7,11.9-3.7c2.4,0,3.2,1.6,4.1,1.6c1.7,0,2.8-3.1,3-4.1
				c0.9-3.1,4.5-6.5,4.5-10.4c0-7.5,7.1-10.1,13-10.1c1.9,0,3.5,0.3,4.3,0.8c0.9,0.3,3.7,0.5,5,0.5v2.3c0,3.6-3.7,8.3-3.7,13.2
				c0,4.1-1.3,5.9-2.6,8.6v-1.8h-1.7v12.4c0,2.6-2.6,3.6-3.9,5.2v1.3c0,1.8,1.3,2.8,2.6,2.8c7.1,0,12.9-1.6,20.5-1.6
				c5.2,0,6.5,4.5,10.4,5.4v3.9c0,2.3-0.2,8.8-1.5,11.4v15.8c0,5.7,4.5,8,8,10.1c2.4,1.3,2.4,6.2,6,6.2c5.6,0,8.4-5.2,13.6-5.2
				c6,0,8.7,5.2,12.1,8.3c-0.1,0.2-0.7,1-1.4,2c0.7-0.6,1.3-1.1,1.6-1.8c1.7,0.5,1.1,0.5,2.6,0v-1.5c0-0.5,0.9-1.3,1.3-1.3
				c0-2.6,2.2-3.4,3.4-4.4c1.3-1,1.5-4.4,2-6.5c1.1-4.2,3-4.9,5.8-6c5.2-2.1,8.6-3.1,14.1-5.2c2.8-1,3.4-4.9,6.2-4.9
				c1.1,0,2,2.9,2,3.1c0,2.1-1.3,3.1-2.2,3.1c-0.6,3.9-1.9,8.3-1.9,10.6c0,2.8,1.2,7.8,3.6,7.8c0.9,0,2.1-3.2,2.1-4.2
				c0-3.1-2.6-4.9-2.6-8c0-3.9,3.4-3.3,5.4-4.9h5.2c-0.9-3.1-4.1-1.8-4.1-4.9l3.8,0.1c0.9,4.2,5.7,5.6,9,6.4c0,2.5,1.3,4.4,2.6,4.6
				h11.7c0,2.3,2.6,2.9,4.3,2.9c3.2-0.5,5.4-0.5,6.7-3.6c0.2-0.8,4.7-0.8,5.4-1.3c2.1,0,6,0.8,6,0.8c-0.9,0.8-2.6,1-3.2,0.5v2.1
				c1.5,3.6,6,4.4,9.3,5.7c2.8,1,2.2,4.9,3,8.3h6c4.1,4.9,6.1,4.1,8.6,10.6c0.4,1,2.2,1.6,3.2,1.6c1.5,7.3,10.6,6.5,16.4,7.8h5.6
				c1.5,0.8,5,2.8,7.1,2.8v0.5h1.3c3.5,0,8,8.5,11.7,9.6c0,3.1,2.8,11.4,3.9,14.2c1.1,2.6,3.9,2.6,3.9,5.2
				c-3.4,5.2-9.7,7.8-9.7,15.5c0,2.6,1.9,2.3,3,2.8c2.1,1.3,3.2,3.4,3.7,6h5.2c0,0.8,0.4,2.8,1.1,2.8c0.9,0,1.7-1.8,2.4-3.1
				c2.1-4.2,4.7-9.6,8.2-9.6c3.9,0,11.7,4.9,14.5,7c1.7,1.3,3.7,0.8,4.1,2.9c0.6,2.3,0.4,4.1,0.4,6.4h1.5c1.9-1,2.8-2.8,4.8-2.8
				c4.5,0,5.4,4.2,9.7,4.2l8.2-1.3c4.1,1.1,7.8,2.9,10.2,4.2c1.9,3.9,8.7,11.1,12.1,12.4c3,1,5-0.5,8,0.5
				C600.3,843.8,601.4,849.2,601.4,854.6z M322.4,462.5c0,0.9,0.8,1.4,1.1,2.2c-0.2-0.6-0.5-1.2-0.7-1.6c1.5,0,1.5-0.3,2.6-0.3
				c6.3,0,20,2.5,20.1-7.2c0.1,0,0.2-0.2,0.4-0.5c-0.2,0.2-0.4,0.4-0.4,0.5c-5.4,0-15.6,3.1-20.3,4.9
				C324.5,460.7,322.4,461.2,322.4,462.5z M321.6,471.3c1.3-0.8,2.5-1.5,3.4-2c0,0,0,0,0,0C324,469.8,322.9,470.5,321.6,471.3z
				 M316.3,470.3c-3,0-6.3-0.3-8.2,2c-0.9,1-1.1,2.6-3,2.6c-1.3,0-2.6-1.8-3.2-3.1c0,2.6,0.9,6.5,3,6.5c4.4,0,11.6-4,16.6-7
				C320.4,472.1,319.1,470.3,316.3,470.3z M262.7,417.3c-1.9,0-11.2,7.4-16.2,14.9h3.2c1.5-0.8,2.4-1.6,3.9-1.8
				c0.9,2.3,1.5,2.6,3.2,2.6c3.7,0,3.9-3.3,5.8-3.3c2.4,0,6.3-4.9,9.5-5.7c0,3.6-1.5,4.4-2.4,6.5h4.3c0.2,1.8,2.2,3.1,3.7,3.1
				c2.8,0,3.7-2.6,6-2.6c5.2,0,7.8,3.4,12.3,3.4v3.1c-3.2,1.3-8,0-9.7,0c-4.7,0-13.4,7.2-13.8,12.4c2.2-1.5,3-3.6,5.2-3.6
				c-3.7,5.7-5.4,18.9-5.4,25.6c0,2.9,2.6,5.2,4.9,5.2c3.2,0,4.3-7.8,4.3-11.1v-8.3c0-3.3-0.1-11.1,2.3-11.3
				c7.9-0.6,4.2-6.8,7.8-6.8c1.7,0,9.7,4.6,9.7,7.8c0,3.6-1.7,5.9-2.4,9.6c2.6,0,2.2-1,4.3-1.8c0.9,4.1,0.9,5.9,3,8c0,0,0,0,0,0
				c3,0,5-12.4,5.8-16.6c0.9,1,3.4,4.4,6,4.4c1.3,0,2.2-1.3,2.2-3.1c0-3.9-3.2-6.5-5.8-8.5h-5.6c-5.4-4.1-12.1-2.9-17.1-8.8
				c-1.7-2.1-0.4-4.7-1.7-7.8c-0.4-1-9.5-9.8-10.8-9.8h-1.7c0,0.5,0.2,2.6-0.2,3.6c-0.9-1-2.6-5.7-5.2-5.7c-2.2,0-1.3,4.2-3.5,5.5
				C266.6,417.5,265,417.4,262.7,417.3z M-26.1,301.7c-1.4,2-2,5-4.3,5c-1.8,0-3.7-1.2-5.4-2.9c1.7,1.7,3.5,2.9,5.3,2.9
				C-28.1,306.8-27.5,303.7-26.1,301.7z M-9.6,312c-3.2-4.6-6.2-7.7-10.6-13l0,0C-15.8,304.3-12.8,307.4-9.6,312z M2.3,333.4
				c0.3,0.3,0.6,0.6,1,0.7C2.9,334,2.5,333.7,2.3,333.4c-2.4-2.9-3.4-6.7-4.3-9.8c-0.6-2.1-2-2.7-2.6-3.6c0.6,0.8,2,1.5,2.6,3.6
				C-1.2,326.7-0.1,330.6,2.3,333.4z M3.3,334.2c1.1,0.5,2.5,0.6,3.5,1.5C5.8,334.7,4.4,334.7,3.3,334.2z M331.9,616
				c0,2.1,0,4.9,2.2,4.9c0.4,0,1.1-0.8,1.1-1.3c0-1.8-0.7-3.4-2.4-3.6C332.5,616,331.9,615.8,331.9,616z M331.6,601.2
				c-1.1,0-2.6,1-3,2.1c1.3,0,3.5,0.3,5.6,0C333.8,602.5,333.1,601.2,331.6,601.2z M338.3,604.4c-0.2,0.8,0.4,2.3,1.1,2L338.3,604.4
				z M364.5,645.5v-2.3c-0.9,1.6-2.6,2.8-4.3,2.3v1.6c0,0.3,0.6,0,0.9,0C362.1,647.1,363.6,646.5,364.5,645.5z M-0.8,353.3
				c1.1,0,1.7-0.8,1.7-2.6c0-5.7-5.8-6.5-5.2-13.4c-4.5-1-5.6-1-5.6,5.2c2.6-2.1,1.3-0.8,4.7,0c-0.6,1.3,0,3.4,0,5.2
				C-5.1,347.9-2.7,353.3-0.8,353.3z M-16.3,327.5c-0.4,0.3-2.2,0.8-2.2,0c-1.1-4.2,0-4.2,0-10.9c-3,2.1-1.1,0-5,0
				c-0.9,0-2.6,0.5-2.6,2.6c0,3.9,2.6,7.2,5.8,7.8c0,4.1,0.8,7.2,3.5,10.4C-14.6,334.7-16.7,331.1-16.3,327.5z M183.5,178.6
				c3.9,0,4.7,1,8.7-2.1c-4.1-3.9-22.3-9.6-22.3-17.9c0-6.7-5.8-12.7-5.8-22c0-2.3,4.7-4.7,4.7-8.5c0-3.9-3.7-5.7-7.6-5.7
				c-3.4,0-6.5,1.8-6.5,4.4c0,0.8,0,1.8,0.2,2.6c-3.5,2.1-2.2,0-6.1,0c-1.7,0-3.9,1.3-3.9,3.4c0,2.3,3.2,14.5,5,17.9
				c-1.1,1-1.1,2.1-2.8,2.1c-3.9,0-2.4-6.5-3.7-9.6c-1.1-2.8-4.1-6.2-7.1-7.3h-4.7c0.4,1.6,0.9,2.3,1.1,4.7
				c-2.4,0.8-4.1,1.3-6.5,1.8c-1.5-4.7-3.7-7.8-9.7-7.8c-3.5,0-5,3.4-6.7,4.6c-0.9-1.5-0.6-9-3.7-9c-7.8,0-27.4,9.3-27.4,22
				c0,1.3,4.1,5.2,6.5,5.2c2.8,0,4.1-0.8,7.6,0.3c-2.4,1.8-8.6-0.3-8.6,5.4c0,7.2,11.9,4.7,16.6,4.7h11.4c2.2,0,3.9,1.6,5.4,2.6
				c-2.6,0.2-3.9,0.5-7.1,0.5c-9.1,0-15.8,1.3-20.9,5.9c1.5,3.1,5.4,9.1,10.1,9.1c3,0,9.5-0.8,11.9,1.3c2.6,2.3,0.2,6.5,3.9,6.5
				h19.4c4.6-3.9,10-1.8,15.6-5.2c3.2-1.8,1.7-4.6,5.6-4.6c6.3,0,9.3,7.8,17.7,7.8c5.4,0,10.4,0.2,12.3-4.7
				c-0.9-0.8-1.9-1.6-2.2-3.6c-0.9,0-3.2,0-3.2-2.1C180.7,179.4,181.8,178.6,183.5,178.6z M47.4,153.5c0.6,1.3,2.2,5.2,3.2,5.2
				c1.1,0,1.7,2.6,3.2,2.6c1.7,0,16.6-6.5,16.6-8.5c0-6,9.5-16.8,16.2-19.4c2.1-0.8,13.6-2.8,13.6-5.7c0-6-10.6-11.2-15.1-11.2
				c-2.8,0-5.4,3.1-7.4,0.8c-4.7-0.5-6.9-3.6-11.6-5.2c-3.9-1.3-6,1.8-8.7,1.8c-5.2,0-7.5-2.6-12.9,0c0.2,2.8,3.2,7,3.2,9
				c0,9.3-10.8,16.6-10.8,25.4C37,151.5,45.7,150.7,47.4,153.5z M98.6,82.9c3.9-0.8,5.2,0,7.1,0c0.9,0,3.5,0.8,3.7,3.9h5
				c6.5,0,11,9.8,20.5,9.8c2.8,0,3.9-1,4.8-3.4c-2.4,0-3.5-0.3-4.3-0.8c0.2-0.5,1.5-1,2.2-1v-3.4c-1.5-0.3-5.4-1.6-5.4-3.9
				c0-4.2,5.6-6.2,7.8-8.3c1.3,1,2.6,1.8,4.1,1.8c-0.2,2.1,0,2.8,0,3.4c0,3.9,4.1,9.6,8.2,9.6c1.9,0,3-3.1,5.8-3.1
				c2.6,0,5,3.4,5,6.5c0,3.6-5.2,11.4-7.1,12.1c-1.3,0.5-14-1.3-14-0.5c0,0.5-13.8,4.2-14.5,4.4c-4.3,2.1-8.6,3.9-14,3.9
				c-2.6,0-6.1-2.4-6.1-3.9c0-3.9,3.2-3.1,6.1-3.1c-1.3-2.1-3.2-3.4-3.7-6c-1.3,0.3-2.4,1.8-2.4,3.4c-3.7,0.5-6.5,1.8-9.1,1.8
				c-2.8,0-6-1.8-7.6-1.8c-1.7,0-3.2-1.8-3.2-3.9c0-2.6,0.9-2,0-3.9c2.2-0.5,3.2-2.6,5.4-2.6c0.9,0,1.7,0.1,2.4,0.3
				c-0.8-0.4-1.6-0.7-2.4-1.1v-3.9c1.7-0.2,3.7,0,3.7,0c0.2,0,0.6,0.1,1.2,0.2c-0.8-0.3-1.5-0.7-2.3-1.2c0.9-1.5,2.6-2.8,4.3-2.8
				c0.2,0,0.4,0,0.6,0.1C99.3,85,98.6,84.2,98.6,82.9z M102.8,90.6c1.4,0.3,2.6,0.5,3.3,0.6C105,90.9,103.9,90.7,102.8,90.6z
				 M76.6,95.3c0,1.8,1.9,3.1,3.7,3.1c2.8,0,6.1-5.4,6.5-9.1C84.6,89.1,76.6,91.2,76.6,95.3z M106.8,79.8h4.8v-3.4H104
				C104,78.8,105.7,79.8,106.8,79.8z M60.8,89.4c2.2,0,3.5,1.6,6.1,0c0.4,1,1.9,3.9,3.7,3.9c2.4,0,4.1-2.8,4.5-5.7
				c3.7,0.5,6.9-3.6,7.4-8c1.9,1.3,1.7,7.3,5.4,7.3l9.3-8.3c0-2.1-1.5-2.6-1.7-5.2c1.5-0.5,2.8-2.3,2.8-4.1c0-4.6-13-0.5-13-0.5
				c-1.9-0.3-2.2-0.5-3.9-0.5c-6,0-7.1,6.7-11.2,9.6c-3.7,2.6-6.9,3.1-10.4,5.2C58.9,83.4,55,87,55,87.5c0,0.8,1.7,2.1,2.2,3.9
				C58.9,91.2,59.5,89.4,60.8,89.4z M122.3,55.2h9.3c2.6,0,4.1-1.6,5.8-2.6c-0.9-3.4-4.5-6.5-9.1-6.5c-2.8,0-15.8,5.7-15.8,9.1
				c1.7-0.3,2.6-2.1,4.3-2.1C119.1,53.1,119.8,55.2,122.3,55.2z M131,56.5c-4.5,0-17.7,0.5-17.7,6.5c0,2.3,3.7,7,6.9,7
				c4.7,0,11.9-2.3,11.5-7.8h-6.1c3.2,0,6.9-0.8,9.3-3.1C134.2,58.1,133.4,56.5,131,56.5z M107.2,64.8c1.5,0,2.2-1.5,3-3.1
				c-1.3-0.8-7.3-7.2-7.3-0.8C102.9,62.2,105.3,64.8,107.2,64.8z M214.6,139.3c0-2.6,0.6-0.3,0.6-3.9c0-2.9-6.3-0.5-8-0.3
				c1.5-2.3,6.9-4.4,6.9-9.6c0-1.3-1.5-2.6-2.2-2.6h-8.6c-4.8,0-9.5-1-13,3.1c-0.2,0.8-1.5,1.3-1.5,2.1c0,3.4,4.1,2.8,6.9,3.4v7
				h-3.2c-3.7,0-6.9-3.1-9.7-3.1v4.4c6.3,7.5,13,6.5,19,13.7c1.3,1.6,1.7,4.4,4.7,4.4c1.9,0,2.4-3.1,4.3-3.9
				c6.9-3.1,7.6,0.7,8.6-13.5C218.2,140.1,215.4,139.6,214.6,139.3z M172,80.3h-2.6c0,1.3,0.3,2.3,0.7,3.1l-0.3-0.5v4.7
				c1.7,1.6,3.2,3.4,5.4,2.6l0.6,2.6h3.2c0,1.6,1.1,3.1,2.6,3.1c4.3,0,11.9-2.6,15.8-2.6c0.9,0,1.9,0.3,2.6,0.8
				c-1.3,1.6-5.4,1.6-5.4,3.9c-0.2,0.8-0.2,1.8,0,2.6c-0.9,0.5-1.5,1.6-1.5,2.6c0,2.3,5.6,1.3,6.9,1.3c0.7,0,5.4,0,8.6-1.3
				c-0.9-7.2,1.7-10.4,1.7-16.3c0-3.9-0.4-6.5-4.3-6.5c-1.7,0-2.6,2.1-4.3,2.1c-4.1,0-6.3-2.6-9.7-2.6c-1.5,0-2.4-0.5-3.9,0.3
				c0.9,3.6,3.9,3.6,7.6,3.6v5.7c-5.4,0-7.1-5.7-11.9-5.7v3.1c0.9,1.3,2.6,3.1,4.3,4.4C181.5,93.5,178.3,80.3,172,80.3z
				 M205.5,186.4c-0.9,0.3-4.7-0.8-4.7,1.3c0,0.8,16,7.8,18.8,7.8c2.4,0,3.2-2.6,5.4-4.1c-1.3-3.6-10.2-13.2-13.4-13.2
				C207.2,178.1,208.1,185.4,205.5,186.4z M234.7,117.3c-4.5,0-5.8,3.6-5.8,3.9c0,0.8-0.4,2.3,0,2.6h-4.9v4.4
				c1.5,5.2,0,8.3,3.4,12.4c-0.2,1.3-0.2,4.4-0.2,7.8h4.3c2.6-3.1,4.3-3.9,5-8.5h-2.8c1.3-5.2,1.3-1.8,6.1-1.8
				c6.5,0,9.5-5.7,12.3-10.3c0,0,3.9-3.4,3.9-3.9c0-1.3-0.2-2.1,0-3.3C248,120.4,242,117.3,234.7,117.3z M166.6,72.5
				c1.5,0,2.8-1.3,3-3.1c-4.5-1.8-5-7.3-10.6-7.3C159.1,65.5,164.3,72.5,166.6,72.5z M165.5,104.1c1.7-0.2,2.2,0.3,4.3,0.3
				c1.3,0,3.2-0.3,3.2-3.4c0-1.8-1.1-2.6-1.5-3.9C168.6,98.4,166.4,99.7,165.5,104.1z M165.5,42.3c-0.2,1-0.9,2.1-1.5,2.6
				c1.7,1.6,2.8,0,7.6,0c-0.4,0.8-0.4,2.3,0,3.1c-2.6,1-4.5,0.8-6.5,3.1c1.9,2.3,2.8,2.1,5.8,2.1c3.2,0,6.1-1.3,7.1,1
				c3.9-0.5,6.3,1,10.1,1c5,0,4.5,6.5,9.7,6.5c1.7,0,3.9-0.8,3.9-3.4c0-2.8-4.3-4.9-6.1-7c0.4-0.8,1.3-1.8,1.7-2.6
				c-1.1-1.3-3.5-6-6.5-6c-1.3,0-1.9,2.1-3.2,2.1c-2.4,0-2.2-6-6.5-6c-1.7,0-2.6,2.1-4.3,2.1c-2.6,0-3.7-4.7-8.2-4.7
				c-2.6,0-4.3,1.6-6.9,2.1C161.9,41.5,162.5,42.3,165.5,42.3z M183.5,58.3c-0.9,0-5.8,3.9-2,3.9c3.2,0,5.8,0,6.9-1.8
				C186.5,59.6,185.8,58.3,183.5,58.3z M264.5,108.3h2.6c-0.4,4.4,6.3,5.2,10.8,3.9h17.3c1.9-1.6,2.4-2.8,5.4-3.4
				c0.4,1.8,1.5,3.9,4.3,3.9c7.6,0,17.3,0,17.9-9.1c0,0-1.3,0.3-2.8-0.2c0.2-1,0.6-1.8,1.1-2.4c0.6-0.1,1.4-0.2,1.7-0.5
				c-3-6.7-8.6-7.2-17.3-7.2c-11.2,0-15.1,6.5-27,6.5c-5.4,0-9.7-1.6-14.9-3.1c-0.9,0.8-3.5,2.3-3.5-1.3c0-0.8,1.1-0.8,1.5-1.3
				c-3-2.8-8.4,1-9.7-5.9h8.6c-1.9-3.4-11.9-1.8-10.2-7.8h-3.9c-0.9,1.6-2.2,2.1-4.3,2.1c-7.3,0-9.1-9.1-18.8-9.1
				c-2.6,0-6.5,0-6.5,3.9c0,2.3,13.2,9.1,15.5,9.1c1.7,0,3-1,4.3-2.6c3.7,4.4,4.7,8.5,8.6,13.2c-0.9,0.5-2.6,2.3-2.6,4.1
				c0,5.2,10.8,11.6,15.6,11.6C260.4,112.6,263.6,109.6,264.5,108.3z M236.8,103.1c0-3.3-5.2-8.5-9.1-8.5c-5,0-4.1,5.9-6.5,5.9
				c-0.4,0-2.8,1.3-2.8,3.9c0,0,12.5,7,14,7C235.5,111.4,236.8,107.5,236.8,103.1z M237.5,65.5v-3.4c-2.2,0.5-0.4,0-2.8,0
				c-4.1,0-11.9,0.5-14,3.1c0,0,12.5,2.8,13.6,2.8C236.2,68.1,237.5,66.9,237.5,65.5z M214.8,56.5c-0.6,0.3-2.2,1.3-2.2,2.6
				c0,3.1,7.6,2.1,15.1,0c-0.6-2.8,0-4.7,0-6.5c0-5.4-7.6,0.3-7.6-6c-2.4,0-6.9-1.8-7.6-3.9c-2.2,0.3-5,1.3-5,3.9
				C207.7,51.8,212.2,53.4,214.8,56.5z M204,30.6h3.7v-5.2c-1.5,0-4.8-0.3-7.6,0C200.1,28.6,202.7,29.1,204,30.6z M231.4,25.5
				c-1.9,0-5.4-1.6-6.5-2.6h-3.2c0.6,7.5,5.2,8.3,12.5,8.3c-1.3,2.1-2.8,2.3-5,3.4c0,1.5,0.2,2.6,1.7,2.6c1.7,0,2.4-1,4.5-2.1
				c0.7,1.5,0.9,3.4,3,3.4c2.6,0,3.2-2.1,6.5-2.1c3.3,0,5.6,1,8.9,2.1c-3,0.8-16.4,0.3-16.4,5.2c0,3.9,6,6.5,9.7,6.5
				c-0.7,0.8-1.3,1.6-2.8,1.8c0.4,3.6,5.2,4.7,8.6,4.7c3.2,0,5.2-1.3,5.2-5.9c1.9,1.6,5.8,4.9,7.8,4.6v-3.4h3.9
				c-0.6-2.1-1.5-2.6-2.8-5.2c1.1-1.3,1.5-2.6,2.6-3.9c0.6,2.9,0.6,5.2,3.5,5.2c2.8,0,5.8-7.8,10.1-8.3c1.7-0.3,4.1,0.2,5-1.3
				c0.7-1,0.2-2.1,0.2-3.9c-2.8-0.3-8.4-3.4-10.6-3.4c-0.4,0-3.7,2.3-3.7,0c0-1.6,1.5-2.1,1.5-3.9c0-1.8-2.6-2.1-2.6-3.9
				c0-3.1,0.2-4.4-2.8-4.4h-2.2l1.1,1.8v3.4h-2.6c-1.9-2.3-0.6-5.7-3.9-7.2c-3.2-1.5-5.4,1-8.6-0.5c-3.5-1.6-2.6-9.1-6.9-11.1
				c-3.9-1.8-8.2-2.3-13.6-2.8c0.2,3.6,3.9,3.9,6.5,5.4h-3.7c-3.9-1-5.6,0.5-8.2,2.3c0,0.3,2,4.1,2.8,4.1c1.3,0,3.9-1.5,6,0
				c-0.6,0.8-1.1,2.6-2.4,2.6c-1.7,0-2.8-1.8-5.8-1.8c-1.9,0-4.9-0.3-4.9,2.6c0,2.8,6.7,4.6,9.5,5.7
				C233.4,23.4,232.3,25.5,231.4,25.5z M310.3,248c-1.1-1-0.4-2.8-1.5-4.7c-3.9-6.2-10.8-3.6-15.3-10.4c-0.7,0.5-1.3,1-1.9,2.1
				c-1.1-2.6-2.2-3.4-3.3-7.3c-6,0.8-7.1,11.1-7.1,15.5v3.9c0,1.5-1.1,2.3-2.1,3.4c-0.4,1.3-3,0.8-3.2,5.2c1.7-0.2,5.8-1.1,9.3,0
				c-0.4,2.6-1.1,5.2,1.5,5.2c1.1,0,1.1-0.8,1.7-2.1c3,1.5,10.2-3.9,10.2-9.6c1.3,0.5,8.2,6.5,8.2,6.5h5.8c2.8,0,4.7-1.1,7.1-2.8
				C317.6,249.8,313.7,251.1,310.3,248z M351.3,205.3c0-8.5-13.4-10.4-13.4,0c0,3.1,2.1,5.7,5.4,5.7
				C345.9,211,351.3,208.7,351.3,205.3z M302.7,262.8c-0.2,1.5-3,3.9-4.8,6.5v3.4c3.5-0.5,8.9-5.7,10.8-8.8
				C306.1,262.5,307,262.5,302.7,262.8z M326,138c3.7,0,5.6-2.6,8-2.6c2.4,0,3.7,1.8,6.5,1.8c1.9,0,3.2-1.8,3.9-4.1
				c-3.9-2.3-8.8-8-14.7-8c-4.5,0-6-2.1-10.8-2.1c-1.7,0-3.7,1.3-3.7,3.9c0,2.8,2.4,4.1,4.3,5.4C318,136.7,321.7,138,326,138z
				 M321.1,277.8c2.2,0,2.6-3.6,3.9-5.7c-2.2-3.1-7.1-2.8-7.1,1.8C317.8,273.9,320.6,277.8,321.1,277.8z M360.6,203.5
				c-0.7-1-2.4-4.1-4.3-4.1c-0.4,0-2.8,1.8-2.8,2.6c0,1.5,1.3,2.1,2.8,2.1C358.4,204,357.8,204.3,360.6,203.5z M330.3,184.3
				c-2.6,0-7.6,5.9-5,5.9C328,190.3,329.7,187.4,330.3,184.3z M376.8,160.5c0.6-4.4-4.7-5.2-7.1-5.2h-5.4c-7.1,0-8.6-8.8-13.4-12.9
				c-2.8-2.3-12.1-3.9-16.2-3.9c-3.9,0-5,6.5-8.6,6.5c-1.9,0-2.6-2.6-5-2.6c-2.1,0-3,2.6-4.3,2.6c-1.1,0,0-4.1,0-5.2
				c0-5.7-3-14.8-8.6-14.8c-8.6,0-23.1,3.1-23.1,12.9c0,2.6,2.2,4.4,2.2,7c0,2.1-3,5.2-4.3,5.2c-2.6,0-2.2-2.3-2.2-4.4
				c0,0-0.4-2.8,0-4.7c-1.1,0-1.7-1-1.7-2.6c0-7.5,7.1-8,9.3-13.5c-0.2,0-7.1-2.6-7.1-2.6c-7.3,0-13,4.4-17.3,9.6
				c-0.9,1,0.2,5.7-1.5,7.3c-3.2,2.8-4.3,4.4-4.3,11.6c0,2.3,3.2,7,3.2,7s9.9,1,11.9,2.6v3.4c-3.7-0.5-6.9-2.1-9.7-0.8
				c0.4,3.6,3.7,4.1,4.8,7.8h10.4c1.3,2.1,4.8,5.2,6.5,5.2c9.7,0,26.1-0.8,32.8,0c-0.2,1.8-1.1,5.9,1.7,5.9c3.9,0,7.4-9.8,10.2-9.8
				c2.4,0,14,11.9,16,14.2c-1.3,0.3-5.2,0.8-5.2,3.4c0,0.5,0.9,3.1,1.7,3.1c2.8,0,4.1-3.1,6.9-3.1c4.5,0,18.4,12.7,18.4,19.4
				c0,3.6-4.5,9.3-6.5,11.6c-1.5,1.8-5.4-0.5-5.4,3.9c0,2.1,2.8,4.7,3.9,5.4c-2.6,2.1-7.8,3.6-9.7,3.6h-9.3c-3,0-8.6,4.4-8.6,7
				c0,3.6,6.9,7.3,9.3,7.3c2.6,0,3.9-3.9,6.5-3.9c1.9,0,1.5,1.8,3.7,1.8c1.9,0,3.2-2.1,4.3-3.9c6.3,4.4,9.7,9.3,16.8,13
				c-3.7,8.3,9.3,8,14.5,11.6c5.4,3.9,9.5,2.3,15.8,5.9c0.6,0.3,1.1,3.1,2.2,3.1c0.9,0,2.2-1.3,2.2-3.1c0-7.2-12.1-12.7-15.8-18.1
				h3.2c2.4,3.6,16.2,9.8,20.1,10.4c0.8-2.9,3.2-7.8,3.2-10.4c0-2.9-3.9-4.1-3.9-6c-0.2-1-0.2-1,0-5.2h-3.7c-0.4-4.4-1.9-1.3-6-3.1
				c-1.7-0.8-4.3-6.5-4.8-9.8h-2.8v-3.9c0.9,0.8,1.9,0.5,3.2,0v-3.1c-1.9,0.5-2.4,0.8-4.3-0.5c0.2,0,3-2.8,4.3-2.8
				c10.4,0,10.8,17.6,21.6,17.6c2.4,0,2.8-4.4,2.8-7.3c4.1,0,4.8-2.3,4.8-3.1c0-1.3,0.2-0.5,0-3.4c2.8,0,6.5-1,6.5-4.4
				c0-4.1-1.7-6-5.8-6c-1.1,0-2.8,0-3.9-1.3c-1.7-4.9-2.8-1.3-7.6-1.3c-3.2,0-4.3-4.4-4.8-9.1c-4.5-0.5-10.4-3.1-10.8-9.1
				c-2.8,0-4.1-0.8-6-2.1c1.9-3.9,3.7-3.9,7.1-6c-0.6-1.5-2.1-2.3-3.2-2.3c-1.9,0-2.8,0-6.5-0.5c1.7-3.1,4.5-2.9,7.6-3.6
				c-1.3-3.6-3-6.2-6-6.2h-3.7v-4.4C385.9,167,382.6,162.8,376.8,160.5z M330.8,258.1c2.2,2.1,2.8,2.1,5,0
				C333.2,256.5,332.9,254.7,330.8,258.1z M294.7,226.5c-0.2,1.8,1.5,3.9,4.3,4.1C297.5,228.3,297.5,225,294.7,226.5z M255.2-3h6.5
				c-2.6,1.1-3.9,1.8-6,4.4c0.4,0.3,2.8,2.1,3.9,2.1c4.1,0,4.3-4.6,8.7-4.6c1.7,0,2.4,0,4.3,0.5c-5.6,2-11,1.3-13.4,8
				c1.7-0.3,6.1,0,10.2,0c-2.8,0.3-4.3,1.6-5.8,2.8c1.5,2.3,7.6,5.4,11.9,5.4c1.9,0,3.2-1.3,4.7-2.6h2.8c-1.3,3.4,4.3,5.2,8.6,5.2
				c1.7,0,2.6-2.6,4.3-2.6c2.2,0,3.5,2.1,7.6,2.1c6.9,0,11.9-1.8,16.2-6h3.2c-2.6,3.9-6.3,5.2-10.4,7.2h-10.8
				c-0.4,0.8-1.5,1.6-1.5,2.6c0,1.6,6.9,6.7,8,8c-6.1,0.8-8-6.7-13.4-8.8c-4.3-1.6-9.1-0.5-11.5-0.5c-1.1,0-2.2-0.5-3.2,0
				c0.4,2.1,0.9,3.1,3.2,3.1c-2.2,0-5.4-0.5-5.4,2.1c0,4.6,14.7,4.6,14.7,12.9c0,7.2-6.5,4.9-11.9,7c-3.2,1.3-4.7,4.1-6.5,8.5V57
				h3.2c0.9-1,0.9-1,2.2-1.8h3.2c0,6.2,6.7,9.3,9.7,12.9h-3.9c-4.1-2.8-6.5-7.2-13.4-7.2c-2.2,0-5.4-1-5.4,2.6
				c0,4.6,4.5,5.4,7.1,7.8c-4.5,3.9-15.8,0-15.8,10.4c0,0.8,0.6,2.1,2.2,2.1c1.1,0,1.9-1.3,2.6-2.6c7.6,2.9,13.4,5.2,20.5,5.2
				c3.2,0,4.5-2.6,6.5-2.6h16.2c4.3,0,2.2,3.9,7.1,3.9c5,0,17.3-4.7,17.3-9.1c0-2.3-2.6-2.1-3.2-2.1H325c0-8.8,9.1-3.9,9.1-12.2
				c0-1.6-1.1-2.1-1.5-3.9h10.8c3.7-3.1,5.2-9.3,9.7-11.9c-1.3-3.7-3.7-4.7-6.3-6.2c4.1,0.5,6.7,1,6.3-4.7H347
				c3.5-3.4,8.9-3.9,13.6-5.7c3.4-1.3,8.2,1.8,11.2-0.8c6.5-5.7,11.4-16,20.1-19.4C399.7,8.6,411.8,5,416.7-1
				c-5.4-0.3-14,1.8-16.2-0.8c11.4-6.7,22-2.1,30.7-9.8c1.5-1.3,5.4-0.5,5.4-3.9c0-4.7-11.5-3.4-14-6.5c-1.3-1.5-1.3-3.6-3.7-4.4
				c-1.5-0.5-2.4-1-3.9-2.1l-17.3,5.9c1.7-0.5,2.4-1,3.9-2.8c-4.3-5.2-22.9-4.4-28.1-4.4h-6c-2,0-3.2-1.8-6.5-1.8
				c-3,0-3.9,4.4-6.9,4.4c-3.2,0-4.3-3.1-8.2-3.1c-1.1,0-2.2,0.8-2.6,1.8h-24.8c-2.2,0-3.9,0.8-5,3.4c-2.8,2.8-0.7,0.5-4.3,0.5
				c-6.3,0-8.9,5.4-10.8,11.6c-1.9-0.8-10.4-5.7-14.5-5.7c-4.5,0-1.7,5.7-8.6,5.7c0,1-0.9,2.1-1.7,2.1h-4.7
				c-6.3,0-20.3,3.1-21.6,9.6h4.7C252.6-1.7,253.9-2.5,255.2-3z M677,172.4c-4.5-1.8-23.8-0.8-23.8-8.5c1.1-0.3,4.8-1,4.8-3.4
				c0-2.1-2.2-2.8-2.2-6.5c1.1,0.8,2.2,0,3.2,0c8.9,0,6.7,12.9,16.9,12.9c2.4,0,5.8-0.2,5.8-3.1c0-14.8-13.8-19.2-21.6-28.5v-3.9
				c0.4,0,1.1,0.3,2.8,0c1.3,4.9,8,11.7,11.9,11.7c2.6,0,3.2-4.2,3.2-7.3c0-7-9.7-4.7-11.9-11.6h3.2c1.7,2.9,4.1,4.1,6.5,6
				c1.7-5.4,10.4-2.1,11.9-9.8c-1.1-0.5-2.2-2.1-2.2-3.9c4.1-0.5,8.4-2.8,9.7-7c-2.6-1.1-8.6-0.8-8.6-5.2c0-3.4,3.5-3.4,6.9-3.4
				c-1.1-1.5,0-3.6,0-5.7c0-3.9-3.2-5.4-3.2-11.1c-3,0-6.9,0-6.9-4.4c0-1.8,1.9-3.9,4.3-3.9c3.9,0,15.1,2.3,15.1-3.9
				c0-6.2-8.4-4.9-9.3-9c1.3,0,2.8-0.8,3.9-1.6c-2.2-2.1-5.2-4.9-8.6-4.9c-2.4,0-4.1,1.3-6.5,0c1.3-2.6,1.1-8.8,3.7-11.1
				c4.1-3.6,8.6-5.4,8.6-10.9c0-1,0.2-1,0-3.9c4.1-1.3,9.7-2.3,9.7-6.5c0-2.6,1.5,0.3,0-3.4c3.9-1,9.7-1,9.7-8.3
				c-1.7,1.5-1.9,1.5-4.5,0c9.7,0,14.3-7.5,21.4-10.3c1.3-0.5,5.4-2.8,5.4-6c0-3.4-10.2-9.1-13-9.1c-2.2,0-3.7,0.3-4.3,3.4h-10.4
				c-3.5,2.1-4.1,3.4-8,5.2c-0.8,0.3-4.9-0.8-4.9-0.8h-14.5c-3.5,3.1-14.4,20.2-20,22c0.6-2.6,14.6-20.2,14.6-22.5
				c0-3.9-1.5-7.8-5.4-7.8c-7.1,0-20,14.8-25.4,14.8c-1.7,0,7.7-10.9,8.1-13c-3.9-1.8-40.1,3.4-43.8,0l47.4-3.1
				c5.8-2.6,20.5-1.3,21.6-10.4c-5.4-1.5-13,0.3-18.8-2.6c-10.1-5.2-19.6-15-32.4-15H596c-11,0-19.4,7.3-29.8,7.3
				c-3.3,0-5.4-0.5-8.6,0v3.1h-4.3c-4.8-2.1-8.2-1.8-13.4-1.8c-7.1,0-12.5,1.8-18.4,5.2c1.1,1.8,2.8,2.1,4.3,3.9
				c-1.9,0.5-8.6-0.8-8.6,3.1c0,4.9,8.9,8.3,12.3,10.4h-9.7c-5.4-3.1-10.6-9-19.4-9c-2.2,0-5.4,0.3-5.4,3.4c0,2.1,1.1,3.6,1.7,5.7
				h-3.2c-4.3-2-8-1.5-10.4-6.4l-2.2,2.6c0,1.8,1.1,3.4,1.1,5.2c-4.1,0-5.2-7.8-9.1-7.8c-5.8,0-10.1,4.1-16.2,5.9
				c-8.2,0-11.4,2.6-20.1,3.9c-6.9,1-1.1,13-8.6,13c-2.2,0-3.9-0.5-5.6-2.1C418,7.8,408.3,14,401,16.9c-1.1,0.3-4.3,1.6-4.3,3.9
				c0,4.9,12.3,4.7,16.2,5.2c0,6.5-2.4,11.1-5.8,13.7c-4.7,3.4-12.5-0.5-18.4,1.8c-4.1,1.6-6.5,4.4-10.4,6c-4.7,1.8-12.3-1-12.3,7
				c0,4.2,20.7,11.1,21.6,11.1h7.6c1.1,0,1.7-1.3,2.2-2.6h8.6c-0.6,2.8-0.6,3.9-2.8,5.7h-12.3c-1.1,1.8-1.7,2.1-3.9,2.1h-5.4
				c-1.7,0-6.1,1.6-6.5,5.2c4.1,1.8,2.8,0,7.6,0c2.6,0,5.2,2.9,8.6,4.4c-0.9,2.3-2.4,2.6-4.3,4.2c2.6,3.9,9.5,6.2,14,6.2
				c1.7,0,1.5,0.8,2.8-0.8c-0.6-0.3-1.5-1.3-2.2-2.1c1.1-0.5,2-1,4.3-1c2.6,0,4.5,2.1,6.5,2.1c2.8,0,4.1-3.4,6.9-3.4h6.5
				c24.2,0,39.3,22.5,45.4,44.8v3.9c2,0.3,5.4,0.5,5.4,4.4c0,5.9-4.7,5.4-4.7,11.1c0,3.9,1.9,4.4,5.8,4.4c2.8,0,3.5-4.4,5.4-4.4
				c7.1,0,9.1,12.2,15.8,14.7c-0.2,1.6,0,3.9-2.1,3.9c-5.2,0-8.4-3.9-13-3.9c-1.9,0-1.7-1-3.9,0c0.9,7.3,16.6,8.6,23.3,11.1
				c-1.9,7.3-5.2,9.8-6.5,17.6c-3-1.5-3-1.3-6.1,0.5v0.5c-4.3,4.1-5.6,9.3-8.6,14.2v6c1.3-1.3,2.8-1.1,4.3,0
				c-0.6,2.6-2.2,3.9-2.2,6.4c0,7,5.8,9.8,7.1,14.8c0.6,2.6,1.3,7.5,2.2,8.5c3.7,2.3,4.7-4.1,8,0.8c-1.5,1.8-3.2,1.5-3.2,4.9
				c0,7.5,8.2,19.2,12.5,23.3c0.6,0.5,0.2,4.1,1.5,5.2c3.5,3.1,5.6,1.3,7.1,7.2c2.6-0.3,6-3.4,9.1-3.4c5.4,0,5,11.7,10.4,11.7
				c1.3,0,1.7-1.5,4.3-1.8c0.4,1.6,1.1,2.6,2.6,2.6c5.8,0,3.2-13.5,8.2-16.3c-0.4-2.8,0-9.6,0-14.2c0-7.5,10.1-4.7,10.1-13.5
				c0-2.8-2.6-4.2-2.6-6c0-1.3,0.9-2.1,1.5-3.1c0-0.8-0.4-1.8-0.4-2.6c0-8.5,11.7-6.2,16.2-11.6c1.9-2.3,1.1-4.9,4.3-6.5v5.2h3.2
				c4.5-3.9,11.9-2.6,16.2-7.8c3.2-3.9,3.5-9,7.6-12.9l5.4-4.7c0-2.1,2.1-2.8,4.3-4.4h10.1c8.2-4.2,14.5-3.4,22.3-6.5
				c6.3-2.3,8.4-9.6,15.5-12.4C671.6,175.8,673.8,175.5,677,172.4z M480.5,183.8h4.8c3.7,0,8.2-0.8,8.6-5.2c-5.6-2.1-7.3-9.1-13-9.1
				c-1.9,0-4.7,1.3-4.7,5.2C476.1,177.9,478.5,183.6,480.5,183.8z M471.4,386.2c0-1-0.7-2.6-1.5-2.6c-3.5,0-4.8,4.4-6.5,7.8
				c-3.2,6-5.6,17.6-11.7,21.2c0.2,0.8,1.1,1.3,1.7,1.3v1.5c0,0.3-3.9,3.9-3.9,4.9c0,0.8,1.1,2.6,2.2,2.6c2.6,0,3.5-1.5,6.7-1.5
				c2.4,0,3.7,1.8,6.5,1.8c1.5,0,2.8-0.5,4.3-1.3c1.1,2.6,3.9,1,6.1,1c-0.6,1.6-2.4,1.6-2.4,4.1c0,0.5,0.9,0,1.3,0
				c2.6,0,4.6-3.9,6.3-7c1.7,2.1,0.4,7,2.2,7c0.6,0,1.1,0.5,1.7,0.5c0,1,0.4,3.1,2,3.1c2.1,0,3.4-3.1,3.4-6.2c0-2.6-1.5-2.3-1.5-5.4
				c-1.3,1-0.7,1.5-2.8,1.5c0-1.8-1.5-2.8-1.5-4.1c0-1,1.9-1.6,2.2-3.9c-0.9,0-2,0.3-2.4,0.8c0-3.9,0.2-6.2,0.2-8.5
				c-1.1,0.8-3.9,0.8-6.3,0l-2.6,1v-1.3h-3.9v-2.4l1.1-1.3c-0.9-1.1-2.2-1.3-3.5-1.3c-1.5,0-1.5,1.6-3.2,2.1v-2.3
				C466.8,394.7,471.4,391.9,471.4,386.2z M315.7,373.3c0.2,0,1.1,0.2,1.1,0c0-3.6-3.7-4.4-7.3-4.4c0.2,0.5,0.2,1.3,0,1.8
				C310.7,372.2,313.7,373.3,315.7,373.3z M35.1,406.4c3.5,2.6,11,9.6,16,9.6H53v-2.3c-5.6-6.7-10.8-12.9-20.1-16.6
				c-1.5-0.5-3.5-3.6-5.8-3.6c-1.1,0-2.2,0.8-3,1.3H25c0,0,2.2,0.8,3.2,1.1c-0.2,0.8-1.1,1.8-2.2,2.3c0.9,3.1,6.9,5.7,11.2,5.7
				C36.6,404.6,35.5,404.6,35.1,406.4z M2.7,371.2c0-1.3-1.1-1.8-1.1-3.1c0-2.6,0.4-4.2,0-5.7c-0.4,1.3-1.3,3.3-2.8,3.3
				c-1.3,0,1.3-2.8,1.3-3.1c-1.9-0.2-3-1.8-5-1.8v2.1c0.9,1.6,1.7,4.6,2.6,4.6c1.3,0,1.7,2.9,3.5,3.4c0,0.5-0.9,1.3-0.9,2.9
				c0,2.1,1.3,4.9,3,4.9c2.2,0-1.7-3.9-1.7-4.9C1.6,372.8,2.7,372.2,2.7,371.2z M-136.8,325.6v3.1c1.5,1.3,2.6,1.6,4.5,3.4
				c3.2-3.1,4.6-4.9,8.4-7.3v-3.1h-2.6C-130.3,321.8-133.1,324.3-136.8,325.6z M433.4,407.1c-4.5-3.1-8.6-8-15.3-6.2
				c2.6,2.3,8.9,7.7,12.3,7.7C432.1,408.7,432.7,408.5,433.4,407.1z M420,428.9c-0.4,0.3-0.9,1-0.9,1.8c0,1.8,8,6.7,9.5,6.7
				c0.4,0,2.6-1.3,2.6-2.9V433h-6.5C422.6,432.5,421.1,431.5,420,428.9z M444.8,437.4v-1.8c-5,0-1.7-1.6-1.7-3.9
				c0-1-1.1-1.5-1.5-2.6c-2,0.8-5,7.2-5,8.8c0,1.5,1.3,2.8,3.5,2.8C442.4,440.8,444.8,439.3,444.8,437.4z M-207.4,294.6
				c-1.7,0-2.4-0.5-3.2,1.8h-3.2c0.4,1,1.7,1.8,2.6,2.6h7.1C-204.6,296.4-204.9,294.6-207.4,294.6z"/>
		</g>
	</g>
</g>
</svg>
